<?xml version="1.0" encoding="UTF-8" standalone="no"?>
<!-- Created with Inkscape (http://www.inkscape.org/) -->

<svg
   xmlns:dc="http://purl.org/dc/elements/1.1/"
   xmlns:cc="http://creativecommons.org/ns#"
   xmlns:rdf="http://www.w3.org/1999/02/22-rdf-syntax-ns#"
   xmlns:svg="http://www.w3.org/2000/svg"
   xmlns="http://www.w3.org/2000/svg"
   xmlns:sodipodi="http://sodipodi.sourceforge.net/DTD/sodipodi-0.dtd"
   xmlns:inkscape="http://www.inkscape.org/namespaces/inkscape"
   width="428"
   height="294"
   id="svg2"
   sodipodi:version="0.32"
   inkscape:version="0.48.3.1 r9886"
   inkscape:output_extension="org.inkscape.output.svg.inkscape"
   version="1.0"
   sodipodi:docname="Ticket.svg">
  <metadata
     id="metadata38">
    <rdf:RDF>
      <cc:Work
         rdf:about="">
        <dc:format>image/svg+xml</dc:format>
        <dc:type
           rdf:resource="http://purl.org/dc/dcmitype/StillImage" />
      </cc:Work>
    </rdf:RDF>
  </metadata>
  <defs
     id="defs36" />
  <sodipodi:namedview
     pagecolor="#ffffff"
     bordercolor="#666666"
     borderopacity="1"
     objecttolerance="10"
     gridtolerance="10"
     guidetolerance="10"
     inkscape:pageopacity="0"
     inkscape:pageshadow="2"
     inkscape:window-width="1920"
     inkscape:window-height="1024"
     id="namedview34"
     showgrid="false"
     inkscape:zoom="0.71728972"
     inkscape:cx="214"
     inkscape:cy="147"
     inkscape:window-x="0"
     inkscape:window-y="27"
     inkscape:window-maximized="1"
     inkscape:current-layer="layer1" />
  <g
     inkscape:label="Layer 1"
     inkscape:groupmode="layer"
     id="layer1"
     transform="translate(-616.2868,-505.65095)">
    <g
       id="g3063"
       transform="matrix(1,0,0,1.7561744,0,-502.60492)">
      <path
         style="fill:#8d5577;fill-rule:nonzero;stroke:none"
         d="m 954.42051,734.72752 c 0.16257,-0.85929 0.44126,-1.71859 0.85929,-2.56628 4.31972,-8.5233 21.61018,-12.61077 39.30707,-9.17358 0.34837,0.0697 0.68512,0.12773 1.03348,0.20902 l 5.35315,-10.77606 c -2.97266,-0.77802 -4.45901,-3.1585 -3.34425,-5.50415 1.06832,-2.29921 4.25005,-3.78556 7.36205,-3.53009 l 3.8204,-8.48847 c -2.7637,-0.77801 -4.1339,-2.93787 -3.112,-5.12095 1.0219,-2.17147 4.1223,-3.64621 7.1531,-3.46042 l 3.7855,-8.31429 c -2.8333,-0.65027 -4.2733,-2.74046 -3.2862,-4.85387 0.987,-2.12502 4.0642,-3.55331 7.1066,-3.37913 l 3.7856,-7.80335 c -2.9263,-0.55738 -4.4475,-2.55467 -3.4721,-4.63324 0.9522,-2.03213 3.9598,-3.43719 6.9557,-3.30946 l 3.263,-7.10663 c -2.7405,-0.53415 -4.1687,-2.38048 -3.263,-4.33132 0.8941,-1.93923 3.832,-3.29785 6.7583,-3.26301 l 3.263,-6.74665 c -2.8682,-0.41804 -4.4126,-2.22953 -3.5069,-4.15714 0.8941,-1.93923 3.9249,-3.30946 6.9092,-3.18173 l 3.1353,-6.75826 c -0.778,-0.0348 -1.5676,-0.0929 -2.334,-0.16257 -14.6313,-1.11476 -24.4552,-5.98025 -23.921,-11.49601 l -2.3921,-0.23224 -199.57776,-13.53975 -116.88773,-7.91947 -0.18579,-0.0232 c -3.99458,4.02941 -12.76174,6.87438 -19.4271,6.32861 l -4.401,4.05264 c 1.07993,0.18579 1.03348,1.20766 -0.15096,2.38049 -1.17282,1.17282 -3.0656,2.05534 -4.3081,2.03212 l -4.19198,4.00618 c 1.23089,0.11613 1.20766,1.2425 -0.0464,2.49661 -1.27733,1.25411 -3.32107,2.15986 -4.55195,2.02051 l -4.07586,4.16876 c 1.09154,0.19741 0.99864,1.31217 -0.24386,2.54306 -1.25411,1.25411 -3.21656,2.14824 -4.44745,2.07857 l -4.56356,4.50551 c 1.07992,0.23224 0.9638,1.39345 -0.32514,2.65917 -1.27734,1.27734 -3.27462,2.18309 -4.50551,2.1018 l -4.84226,4.66808 c 1.21927,0.1974 1.10315,1.45151 -0.25547,2.79852 -1.31217,1.31217 -3.29784,2.21792 -4.54034,2.11341 l -4.94677,4.67969 c 1.21927,0.22063 1.07993,1.50958 -0.33675,2.89142 -1.3354,1.3354 -3.33268,2.26437 -4.56357,2.15986 l -6.11959,5.9338 c 0.22063,0.0348 0.46448,0.0813 0.68511,0.13934 6.4099,1.26573 7.96592,6.09637 3.41397,10.93863 l 0.20902,0.16257 0.3832,0.0929"
         id="path4693"
         inkscape:connector-curvature="0" />
      <path
         style="fill:#8d5577;fill-rule:nonzero;stroke:none"
         d="m 622.83605,663.05744 127.1993,27.46269 203.90906,44.0216"
         id="path4695"
         inkscape:connector-curvature="0" />
      <path
         style="fill:#84476c;fill-rule:nonzero;stroke:none"
         d="m 954.15343,734.23982 c 0.16257,-0.8593 0.45287,-1.7186 0.87091,-2.55467 4.3081,-8.52331 21.59856,-12.62239 39.29545,-9.17359 0.34837,0.0581 0.69673,0.12773 1.0451,0.19741 l 5.34161,-10.77606 c -2.97274,-0.78963 -4.45909,-3.1585 -3.34433,-5.50415 1.06832,-2.29921 4.23843,-3.77395 7.35053,-3.5417 l 3.832,-8.47686 c -2.7637,-0.77801 -4.1223,-2.9611 -3.1121,-5.12095 1.0335,-2.18308 4.1107,-3.6346 7.1531,-3.47203 l 3.7855,-8.30267 c -2.8333,-0.6619 -4.2732,-2.75208 -3.2862,-4.86549 0.9986,-2.11341 4.0642,-3.53009 7.1066,-3.37913 l 3.7856,-7.80335 c -2.9263,-0.54577 -4.4475,-2.54306 -3.472,-4.62163 0.9521,-2.02051 3.9597,-3.42558 6.9672,-3.32107 l 3.2514,-7.0834 c -2.7404,-0.54577 -4.1803,-2.40371 -3.2514,-4.35455 0.8942,-1.92762 3.8204,-3.29785 6.7583,-3.23979 l 3.263,-6.75826 c -2.8566,-0.41804 -4.4242,-2.22953 -3.5185,-4.15714 0.9058,-1.92762 3.9249,-3.29785 6.9325,-3.19334 l 3.1236,-6.74665 c -0.7896,-0.0465 -1.5676,-0.0929 -2.3572,-0.15096 -14.6081,-1.13799 -24.4436,-5.98024 -23.9094,-11.50762 l -2.3805,-0.23224 -316.46546,-21.45922 -0.1974,-0.0232 c -3.99458,4.0178 -12.76174,6.86277 -19.41549,6.34023 l -4.401,4.04102 c 1.06832,0.18579 1.01026,1.21927 -0.15096,2.3921 -1.19605,1.17282 -3.0656,2.03212 -4.3081,2.02051 l -4.20359,3.99457 c 1.23089,0.13935 1.21927,1.25411 -0.0581,2.49661 -1.26572,1.26572 -3.30946,2.17147 -4.54034,2.04374 l -4.06425,4.14553 c 1.07993,0.20902 0.98703,1.33539 -0.25547,2.56628 -1.2425,1.2425 -3.21656,2.13663 -4.44744,2.06696 l -4.56357,4.51712 c 1.07993,0.23224 0.9638,1.38184 -0.32514,2.64757 -1.28895,1.27733 -3.26301,2.18308 -4.4939,2.1134 l -4.84226,4.64486 c 1.21928,0.20901 1.10316,1.45151 -0.26708,2.81013 -1.31217,1.30056 -3.28623,2.20631 -4.54034,2.11341 l -4.93516,4.67969 c 1.21928,0.20902 1.06832,1.49797 -0.33675,2.90303 -1.33539,1.31217 -3.34429,2.25276 -4.57518,2.14825 l -6.11959,5.94541 c 0.23224,0.0348 0.45287,0.0697 0.68511,0.12773 6.4099,1.25411 7.96593,6.10799 3.42558,10.92702 l 0.1858,0.1858 0.3832,0.0813"
         id="path4697"
         inkscape:connector-curvature="0" />
      <path
         style="fill:#84476c;fill-rule:nonzero;stroke:none"
         d="m 622.55736,662.56973 127.21091,27.46269 203.90906,44.0216"
         id="path4699"
         inkscape:connector-curvature="0" />
      <path
         style="fill:#7a3961;fill-rule:nonzero;stroke:none"
         d="m 953.89796,733.75211 c 0.15096,-0.87091 0.44126,-1.73021 0.87091,-2.55467 4.29649,-8.53492 21.58695,-12.62239 39.29546,-9.1852 0.33675,0.0581 0.68511,0.15096 1.03348,0.20902 l 5.32999,-10.77606 c -2.94951,-0.78963 -4.43586,-3.14689 -3.35593,-5.49254 1.07993,-2.2992 4.26163,-3.78556 7.39693,-3.55331 l 3.8088,-8.48847 c -2.7637,-0.75479 -4.1223,-2.93787 -3.1121,-5.09773 1.0219,-2.19469 4.1107,-3.64621 7.1647,-3.49525 l 3.7856,-8.29106 c -2.8334,-0.65028 -4.2849,-2.72886 -3.2863,-4.85388 0.9871,-2.1134 4.0527,-3.55331 7.1067,-3.39074 l 3.7855,-7.79174 c -2.9262,-0.54577 -4.459,-2.54306 -3.4836,-4.63324 0.9522,-2.03212 3.9713,-3.43719 6.9673,-3.30946 l 3.263,-7.09501 c -2.7521,-0.54577 -4.1688,-2.3921 -3.263,-4.34294 0.9057,-1.93923 3.832,-3.30946 6.7698,-3.26301 l 3.263,-6.75826 c -2.8798,-0.41804 -4.4474,-2.20631 -3.5301,-4.14553 0.9058,-1.92762 3.9366,-3.28624 6.9209,-3.18173 l 3.1353,-6.75826 c -0.7781,-0.0348 -1.5677,-0.0813 -2.3341,-0.15096 -14.6313,-1.1496 -24.4551,-5.96863 -23.9442,-11.50762 l -2.3689,-0.22063 -199.57771,-13.55136 -116.88773,-7.93109 -0.18579,-0.0116 c -4.0178,4.0178 -12.77335,6.86277 -19.4271,6.34023 l -4.401,4.04102 c 1.07993,0.18579 1.03348,1.23088 -0.15095,2.38049 -1.18444,1.17282 -3.06561,2.04373 -4.30811,2.04373 l -4.20359,3.99458 c 1.2425,0.12773 1.21928,1.24249 -0.0581,2.48499 -1.26572,1.27734 -3.29784,2.18308 -4.52873,2.03212 l -4.08747,4.15715 c 1.10315,0.22063 1.01025,1.34701 -0.24386,2.57789 -1.24249,1.2425 -3.20495,2.13663 -4.43583,2.05535 l -4.57518,4.52873 c 1.09154,0.22063 0.96381,1.38185 -0.31353,2.63596 -1.28895,1.28894 -3.27462,2.19469 -4.50551,2.10179 l -4.84226,4.66808 c 1.21928,0.20902 1.10316,1.4399 -0.26708,2.79852 -1.30055,1.30056 -3.28623,2.21792 -4.52873,2.12502 l -4.94677,4.66808 c 1.20767,0.20902 1.06832,1.50958 -0.33675,2.90303 -1.33539,1.32379 -3.33268,2.24115 -4.57518,2.13664 l -6.10798,5.95702 c 0.22063,0.0348 0.44126,0.0697 0.68512,0.12773 6.39828,1.25411 7.96592,6.10799 3.41396,10.93863 l 0.19741,0.17419 0.3832,0.0813"
         id="path4701"
         inkscape:connector-curvature="0" />
      <path
         style="fill:#7a3961;fill-rule:nonzero;stroke:none"
         d="m 622.30189,662.08202 127.21092,27.4627 203.89744,44.0332"
         id="path4703"
         inkscape:connector-curvature="0" />
      <path
         style="fill:#722c56;fill-rule:nonzero;stroke:none"
         d="m 953.64249,733.25278 c 0.15096,-0.84768 0.44126,-1.70698 0.8593,-2.53144 4.3081,-8.53492 21.59857,-12.62239 39.29546,-9.19681 0.33675,0.0697 0.69673,0.15096 1.03348,0.22063 l 5.35317,-10.79928 c -2.97268,-0.7664 -4.45904,-3.13528 -3.3675,-5.46932 1.09154,-2.31081 4.2617,-3.80878 7.3853,-3.55331 l 3.8204,-8.48847 c -2.7637,-0.77801 -4.1339,-2.94948 -3.1237,-5.10934 1.0335,-2.19469 4.1224,-3.6346 7.1647,-3.48364 l 3.7856,-8.30267 c -2.845,-0.65028 -4.2733,-2.74047 -3.2746,-4.85388 0.9638,-2.1134 4.041,-3.5417 7.0718,-3.40235 l 3.7855,-7.78013 c -2.903,-0.55738 -4.4358,-2.56628 -3.4604,-4.62163 0.9522,-2.04373 3.9713,-3.4488 6.9673,-3.32107 l 3.263,-7.10662 c -2.7289,-0.54577 -4.1804,-2.38049 -3.263,-4.33133 0.9057,-1.93923 3.832,-3.29785 6.7698,-3.26301 l 3.2631,-6.74665 c -2.8799,-0.41803 -4.4243,-2.21792 -3.5301,-4.14553 0.9057,-1.92761 3.9365,-3.30946 6.9208,-3.19334 l 3.1353,-6.75826 c -0.778,-0.0348 -1.5444,-0.0813 -2.3457,-0.15096 -14.608,-1.13798 -24.4435,-5.96863 -23.921,-11.50762 l -2.3805,-0.23224 -199.57768,-13.53975 -116.88774,-7.91947 -0.18579,-0.0232 c -3.99457,4.02941 -12.77335,6.87438 -19.43871,6.34023 l -4.37777,4.04102 c 1.06831,0.18579 1.02186,1.23089 -0.16257,2.3921 -1.17283,1.16121 -3.06561,2.04373 -4.30811,2.02051 l -4.20359,4.00619 c 1.23089,0.11612 1.21928,1.24249 -0.0464,2.4966 -1.26572,1.25411 -3.30945,2.17147 -4.54034,2.03213 l -4.07586,4.14553 c 1.10315,0.22063 0.99864,1.32378 -0.25547,2.56628 -1.24249,1.2425 -3.19333,2.14824 -4.43583,2.06696 l -4.58679,4.51712 c 1.10315,0.22063 0.9638,1.39346 -0.30192,2.64757 -1.30056,1.27733 -3.27462,2.19469 -4.50551,2.09018 l -4.84226,4.6913 c 1.21928,0.1858 1.11477,1.43991 -0.26707,2.79853 -1.30056,1.28894 -3.28624,2.19469 -4.52874,2.1134 l -4.95838,4.67969 c 1.23089,0.20902 1.09154,1.50958 -0.31352,2.89142 -1.34701,1.32379 -3.3443,2.25276 -4.5868,2.14825 l -6.10798,5.94541 c 0.22063,0.0465 0.45287,0.0697 0.68512,0.11612 6.40989,1.27734 7.96592,6.1196 3.41396,10.95024 l 0.19741,0.1858 0.3832,0.0697"
         id="path4705"
         inkscape:connector-curvature="0" />
      <path
         style="fill:#722c56;fill-rule:nonzero;stroke:none"
         d="m 622.03481,661.59431 127.19931,27.4627 203.90905,44.0332"
         id="path4707"
         inkscape:connector-curvature="0" />
      <path
         style="fill:#681c4c;fill-rule:nonzero;stroke:none"
         d="m 953.37541,732.77669 c 0.15096,-0.8593 0.44126,-1.70699 0.8593,-2.55467 4.3081,-8.52331 21.59857,-12.61078 39.28385,-9.1852 0.35997,0.0813 0.70834,0.13935 1.04509,0.22063 l 5.34158,-10.78767 c -2.94948,-0.77801 -4.44745,-3.1585 -3.34429,-5.49254 1.06831,-2.28759 4.26166,-3.78556 7.37366,-3.55331 l 3.832,-8.47686 c -2.7753,-0.7664 -4.1571,-2.93787 -3.1236,-5.12095 1.0218,-2.17147 4.1223,-3.6346 7.1647,-3.46042 l 3.7855,-8.30267 c -2.8333,-0.65028 -4.3081,-2.74046 -3.2862,-4.88871 0.987,-2.1018 4.0526,-3.51848 7.0718,-3.36752 l 3.7855,-7.80335 c -2.8914,-0.54577 -4.4242,-2.55467 -3.4488,-4.62163 0.9406,-2.02051 3.9598,-3.43719 6.9557,-3.29785 l 3.263,-7.10662 c -2.7288,-0.54577 -4.1687,-2.3921 -3.263,-4.35455 0.9057,-1.916 3.8436,-3.29785 6.7583,-3.23979 l 3.2746,-6.75826 c -2.8682,-0.42965 -4.4359,-2.21792 -3.5301,-4.14553 0.9057,-1.93923 3.9481,-3.29784 6.9208,-3.18172 l 3.1353,-6.75827 c -0.778,-0.0464 -1.556,-0.0813 -2.3224,-0.15095 -14.6197,-1.13799 -24.4668,-5.98025 -23.9442,-11.50763 l -2.3805,-0.23224 -199.56615,-13.53975 -116.89934,-7.93108 -0.1858,-0.0116 c -3.99457,4.0178 -12.78496,6.86278 -19.4271,6.34023 l -4.38938,4.04102 c 1.06831,0.1858 1.01025,1.20766 -0.15096,2.38049 -1.19605,1.17282 -3.07722,2.04373 -4.31971,2.03212 l -4.19198,3.99458 c 1.23088,0.12773 1.20766,1.24249 -0.0581,2.4966 -1.26573,1.26573 -3.30946,2.17147 -4.54035,2.03213 l -4.07586,4.14553 c 1.09154,0.22063 1.01026,1.33539 -0.24385,2.56628 -1.25411,1.25411 -3.20495,2.14825 -4.44745,2.07857 l -4.56357,4.4939 c 1.06832,0.24385 0.94059,1.39345 -0.33675,2.67079 -1.27733,1.27733 -3.2514,2.18308 -4.49389,2.09018 l -4.84226,4.67969 c 1.23088,0.1858 1.11476,1.42829 -0.25547,2.78691 -1.32378,1.28895 -3.30946,2.21792 -4.54035,2.12502 l -4.94676,4.66808 c 1.21927,0.20902 1.07992,1.52119 -0.32514,2.90304 -1.35862,1.32378 -3.33269,2.25275 -4.57518,2.14824 l -6.1196,5.94541 c 0.23224,0.0348 0.46449,0.0813 0.68512,0.12774 6.4099,1.25411 7.96592,6.09637 3.41396,10.93862 l 0.19741,0.17419 0.39481,0.0929"
         id="path4709"
         inkscape:connector-curvature="0" />
      <path
         style="fill:#681c4c;fill-rule:nonzero;stroke:none"
         d="m 621.77934,661.11821 127.19931,27.4627 203.89744,44.02159"
         id="path4711"
         inkscape:connector-curvature="0" />
      <path
         style="fill:#5f0141;fill-rule:nonzero;stroke:none"
         d="m 953.11995,732.30059 c 0.12773,-0.88252 0.41803,-1.7186 0.84768,-2.57789 4.3081,-8.50009 21.58696,-12.58756 39.29546,-9.17359 0.34836,0.0813 0.69673,0.15096 1.04509,0.22063 l 5.32997,-10.77606 c -2.94948,-0.80124 -4.44745,-3.1585 -3.34429,-5.51576 1.09154,-2.28759 4.27324,-3.77395 7.37374,-3.53009 l 3.832,-8.47686 c -2.7637,-0.77801 -4.134,-2.96109 -3.1237,-5.14417 1.0335,-2.15986 4.1107,-3.6346 7.1531,-3.44881 l 3.7855,-8.31428 c -2.8333,-0.63867 -4.2848,-2.72885 -3.2862,-4.85387 0.987,-2.11341 4.0642,-3.54171 7.095,-3.39075 l 3.7856,-7.80335 c -2.9147,-0.53416 -4.4359,-2.54306 -3.4604,-4.61002 0.9521,-2.03212 3.9597,-3.43719 6.9556,-3.32107 l 3.263,-7.09501 c -2.7404,-0.54577 -4.1687,-2.40371 -3.2514,-4.34294 0.9058,-1.93922 3.832,-3.30946 6.7583,-3.23978 l 3.263,-6.78149 c -2.8682,-0.40642 -4.4358,-2.19469 -3.5185,-4.12231 0.8942,-1.93922 3.9365,-3.30945 6.9209,-3.21656 l 3.1236,-6.73503 c -0.778,-0.0348 -1.556,-0.0929 -2.334,-0.15096 -14.6313,-1.13799 -24.4436,-5.96864 -23.921,-11.50763 l -2.3805,-0.24385 -199.57773,-13.53975 -116.88773,-7.93108 -0.20902,-0.0116 c -3.97135,4.0178 -12.75012,6.886 -19.41549,6.34023 l -4.38938,4.05263 c 1.07993,0.1858 1.02187,1.21928 -0.15096,2.38049 -1.19605,1.17282 -3.07722,2.04373 -4.3081,2.0089 l -4.20359,4.0178 c 1.24249,0.13934 1.21927,1.23088 -0.0465,2.48499 -1.27734,1.27734 -3.30946,2.18308 -4.54035,2.04374 l -4.07585,4.15714 c 1.07992,0.19741 1.01025,1.32378 -0.25547,2.55467 -1.25411,1.2425 -3.20495,2.15986 -4.43584,2.07857 l -4.58679,4.4939 c 1.09154,0.24385 0.97542,1.39345 -0.30191,2.67079 -1.30056,1.26572 -3.27463,2.19469 -4.50551,2.09018 l -4.85387,4.66808 c 1.23088,0.20902 1.11476,1.45152 -0.25547,2.79852 -1.31217,1.30056 -3.29785,2.21792 -4.52873,2.13664 l -4.94677,4.65646 c 1.20766,0.20902 1.0567,1.50958 -0.34836,2.90304 -1.34701,1.32378 -3.33269,2.24114 -4.56357,2.15985 l -6.10799,5.9338 c 0.22064,0.0465 0.45288,0.0813 0.67351,0.12774 6.4099,1.26572 7.96592,6.10798 3.41397,10.95024 l 0.20901,0.17418 0.3832,0.0813"
         id="path4713"
         inkscape:connector-curvature="0" />
      <path
         style="fill:#5f0141;fill-rule:nonzero;stroke:none"
         d="m 621.51226,660.6305 127.1877,27.45109 203.89744,44.02159"
         id="path4715"
         inkscape:connector-curvature="0" />
      <path
         style="fill:#560037;fill-rule:nonzero;stroke:none"
         d="m 952.82964,731.80127 c 0.15096,-0.8593 0.46449,-1.7186 0.87091,-2.55467 4.3081,-8.5117 21.58696,-12.61078 39.29546,-9.17359 0.34837,0.0697 0.69673,0.13935 1.04509,0.20902 l 5.34158,-10.77606 c -2.96109,-0.80124 -4.44744,-3.1585 -3.36751,-5.51576 1.09154,-2.27598 4.28483,-3.76233 7.38533,-3.53009 l 3.832,-8.50008 c -2.7637,-0.74318 -4.1455,-2.91465 -3.1121,-5.10934 1.0219,-2.18308 4.0875,-3.6346 7.1647,-3.46042 l 3.7624,-8.31428 c -2.8334,-0.65028 -4.2849,-2.71724 -3.2747,-4.85387 0.9871,-2.1018 4.0527,-3.5417 7.095,-3.39075 l 3.774,-7.79174 c -2.8914,-0.55738 -4.4242,-2.54306 -3.4604,-4.63324 0.9522,-2.02051 3.9713,-3.42558 6.9556,-3.30946 l 3.263,-7.09501 c -2.7288,-0.53416 -4.1571,-2.3921 -3.2513,-4.33133 0.8941,-1.95083 3.8436,-3.30945 6.7698,-3.26301 l 3.2398,-6.75826 c -2.8566,-0.41803 -4.401,-2.21791 -3.5069,-4.15714 0.9058,-1.90439 3.9482,-3.28623 6.9209,-3.18172 l 3.1236,-6.74665 c -0.778,-0.0348 -1.556,-0.10451 -2.334,-0.15096 -14.6313,-1.13799 -24.4435,-6.00347 -23.9326,-11.50763 l -2.3689,-0.23224 -199.57771,-13.53975 -116.88773,-7.93108 -0.19741,-0.0116 c -3.99457,4.01779 -12.77334,6.87438 -19.41548,6.34022 l -4.38939,4.02941 c 1.06832,0.19741 1.01026,1.23089 -0.17418,2.38049 -1.17283,1.17282 -3.05399,2.05535 -4.3081,2.03212 l -4.19198,4.00619 c 1.2425,0.12773 1.21927,1.25411 -0.0464,2.49661 -1.26572,1.26572 -3.30946,2.17146 -4.54034,2.03212 l -4.07586,4.15714 c 1.09154,0.22063 0.99864,1.3354 -0.25547,2.56628 -1.2425,1.23089 -3.19334,2.13664 -4.44745,2.06696 l -4.56357,4.4939 c 1.09154,0.23224 0.96381,1.40507 -0.32514,2.6824 -1.27733,1.25411 -3.263,2.17147 -4.5055,2.07857 l -4.84226,4.67969 c 1.23088,0.1858 1.12637,1.43991 -0.24386,2.79853 -1.32378,1.28894 -3.30946,2.2063 -4.54034,2.11341 l -4.95838,4.67968 c 1.21927,0.20902 1.07993,1.49797 -0.32514,2.87981 -1.3354,1.34701 -3.33268,2.26437 -4.57518,2.15986 l -6.1196,5.95702 c 0.23225,0.0348 0.4761,0.0581 0.69673,0.11613 6.39829,1.26572 7.96592,6.10798 3.40236,10.95024 l 0.20901,0.16257 0.38321,0.0813"
         id="path4717"
         inkscape:connector-curvature="0" />
      <path
         style="fill:#560037;fill-rule:nonzero;stroke:none"
         d="m 621.24519,660.13118 127.1993,27.48592 203.90906,44.00999"
         id="path4719"
         inkscape:connector-curvature="0" />
      <path
         style="fill:#fcb017;fill-rule:nonzero;stroke:none"
         d="m 620.98972,659.64347 -0.39481,-0.0813 -0.19741,-0.15096 c 4.54034,-4.86548 2.98432,-9.69613 -3.40236,-10.95024 -0.23224,-0.0581 -0.46448,-0.10451 -0.70834,-0.12773 l 6.1196,-5.96864 c 1.2425,0.11612 3.22817,-0.81285 4.57518,-2.13663 1.41668,-1.38185 1.55602,-2.67079 0.33675,-2.90304 l 4.95838,-4.66807 c 1.23089,0.1045 3.20495,-0.82447 4.54035,-2.11341 1.347,-1.35862 1.47474,-2.61273 0.24385,-2.79853 l 4.84226,-4.67969 c 1.23089,0.10451 3.21656,-0.81285 4.50551,-2.07857 1.27733,-1.26572 1.39345,-2.43855 0.31353,-2.67079 l 4.56356,-4.49389 c 1.25411,0.0581 3.19334,-0.84769 4.45906,-2.07858 1.2425,-1.23088 1.3354,-2.35726 0.24386,-2.56628 l 4.07586,-4.15714 c 1.23088,0.15096 3.26301,-0.7664 4.54034,-2.02051 1.26572,-1.26572 1.27733,-2.3921 0.0465,-2.49661 l 4.19198,-4.00619 c 1.26572,0.0116 3.13527,-0.85929 4.31971,-2.02051 1.17283,-1.18444 1.21928,-2.21792 0.15096,-2.3921 l 4.401,-4.05263 c 6.65375,0.53416 15.42091,-2.31082 19.41548,-6.32861 l 0.1858,0.0116 116.89934,7.9427 199.58944,13.51652 2.3688,0.25547 c -0.5226,5.50415 9.3013,10.35802 23.921,11.49601 0.778,0.0697 1.5677,0.10451 2.3341,0.12773 l -3.1121,6.76988 c -3.0075,-0.10451 -6.0267,1.26572 -6.9324,3.18172 -0.9058,1.92761 0.6502,3.75072 3.5301,4.16876 l -3.2631,6.74664 c -2.9494,-0.0464 -5.8757,1.31218 -6.7814,3.26301 -0.9174,1.93923 0.5341,3.78556 3.263,4.34294 l -3.263,7.0834 c -2.9845,-0.10451 -5.992,1.27734 -6.9326,3.30946 -0.9869,2.07857 0.5458,4.07586 3.4488,4.63324 l -3.7854,7.80336 c -3.0308,-0.15096 -6.108,1.26572 -7.0951,3.36751 -0.9986,2.14825 0.4529,4.22682 3.2746,4.8771 l -3.774,8.30268 c -3.0422,-0.17419 -6.1428,1.26572 -7.153,3.46041 -1.0103,2.18308 0.3483,4.35455 3.1236,5.12095 l -3.8436,8.50008 c -3.1004,-0.25546 -6.29372,1.23089 -7.36204,3.53009 -1.10315,2.35726 0.3832,4.70291 3.3443,5.49254 l -5.3532,10.79928 c -0.32514,-0.0813 -0.68511,-0.15095 -1.03348,-0.22063 -17.69689,-3.4488 -34.96413,0.66189 -39.29546,9.17359 -0.41803,0.83607 -0.70834,1.69537 -0.87091,2.55467 L 620.98972,659.64347"
         id="path4721"
         inkscape:connector-curvature="0" />
      <path
         style="fill:#1e388c;fill-rule:nonzero;stroke:none"
         d="m 660.77289,637.80105 23.71197,-24.5016 -9.06907,-1.06832 7.72206,-7.86141 30.29606,3.20495 -7.73368,8.25622 -9.68452,-1.1496 -23.75842,25.02415 -11.4844,-1.90439"
         id="path4723"
         inkscape:connector-curvature="0" />
      <path
         style="fill:#1e388c;fill-rule:nonzero;stroke:none"
         d="m 692.90366,643.11941 22.30691,-24.32742 12.99397,1.59086 -22.31852,24.8848 -12.98236,-2.14824"
         id="path4725"
         inkscape:connector-curvature="0" />
      <path
         style="fill:#1e388c;fill-rule:nonzero;stroke:none"
         d="m 759.04637,650.82986 c -5.34158,1.07993 -10.25352,2.04374 -17.00017,0.92897 -14.50355,-2.40371 -13.45846,-13.05203 -5.3648,-22.31852 6.07315,-6.95566 20.63476,-17.7085 37.82072,-15.90862 7.06017,0.74318 9.99804,2.74047 11.54246,3.82039 l -9.04585,11.05475 c -1.13799,-1.74182 -3.06561,-4.38938 -8.37235,-5.02805 -8.30268,-0.98703 -15.119,4.47067 -17.78979,7.59434 -4.42422,5.19062 -3.43719,9.80064 3.21656,10.77606 5.4577,0.82446 11.35667,-0.94059 13.7836,-1.64893 l -8.79038,10.72961"
         id="path4727"
         inkscape:connector-curvature="0" />
      <path
         style="fill:#1e388c;fill-rule:nonzero;stroke:none"
         d="m 771.29717,656.07855 31.15535,-39.09805 15.95507,1.70698 -13.70232,17.72011 30.42379,-15.97829 18.33556,1.93923 -32.49075,17.00016 2.45016,25.31445 -20.98312,-3.46042 -0.13935,-21.70307 -14.86353,19.21808 -16.14086,-2.65918"
         id="path4729"
         inkscape:connector-curvature="0" />
      <path
         style="fill:#1e388c;fill-rule:nonzero;stroke:none"
         d="m 881.99563,674.36766 -41.40886,-6.83955 30.08703,-43.33648 40.01541,4.23843 -6.25894,9.84709 -21.07602,-2.49661 -4.51712,6.76987 19.91481,2.53145 -6.54924,10.28835 -20.03093,-2.81014 -5.12095,7.68723 21.80758,3.30946 -6.86277,10.8109"
         id="path4731"
         inkscape:connector-curvature="0" />
      <path
         style="fill:#1e388c;fill-rule:nonzero;stroke:none"
         d="m 917.3778,680.22017 21.27343,-36.4621 -17.82463,-2.13663 6.94406,-11.37989 59.86055,6.32861 -6.4099,12.27403 -19.56645,-2.34565 -20.71604,37.6117 -23.56102,-3.89007"
         id="path4733"
         inkscape:connector-curvature="0" />
      <path
         style="fill:#1e388c;fill-rule:nonzero;stroke:none"
         d="m 723.79193,617.50304 c 2.56628,0.31353 6.38668,-1.41668 8.54653,-3.78555 2.13663,-2.38049 1.77666,-4.51712 -0.75479,-4.7842 -2.53144,-0.26708 -6.317,1.41668 -8.43041,3.7391 -2.17146,2.35727 -1.88116,4.52874 0.63867,4.83065"
         id="path4735"
         inkscape:connector-curvature="0" />
      <path
         style="fill:#ffffff;fill-rule:nonzero;stroke:none"
         d="m 699.67353,589.33201 c -5.65511,3.58815 -13.88811,4.35455 -20.49541,4.96999 l -2.15986,0.18579 c 0,0 0.25547,1.31218 0.32514,1.60248 -1.21927,1.20766 -41.31597,41.14179 -41.31597,41.14179 0,-0.0116 -0.39481,0.3832 -0.39481,0.3832 l -1.5328,1.48635 1.8231,1.07993 c 1.46313,0.8593 2.3921,2.07857 2.78691,3.64621 0.569,2.2063 -0.0348,4.92354 -1.70698,7.65239 l -1.17283,1.93923 5.63189,1.2425 c 0.0232,0 296.92224,58.3858 296.92224,58.3858 0,0 2.34565,-3.12366 2.55467,-3.37913 7.96592,-7.31564 21.54051,-10.35802 41.51337,-9.25487 l 1.01026,0.0464 1.73021,-3.10044 c 0.0232,-0.0465 34.03514,-66.24722 34.03514,-66.24722 0.058,-0.13934 0.2787,-0.61544 0.2787,-0.61544 l 0.7432,-1.81149 -1.9044,-0.41804 c -16.5357,-3.56493 -25.08221,-8.50008 -24.71062,-14.23648 l 0.12773,-1.67214 -4.2152,-0.16257 -286.11135,-23.0617 -3.3559,-0.0697 -0.40643,0.26708 z m 1.20766,2.99593 c 0.53416,0.0116 2.29921,0.0581 2.38049,0.0581 0.0929,0.0116 286.08812,23.06169 286.08812,23.06169 0.0348,0 0.59222,0.0116 1.19605,0.0465 0.78963,6.65376 9.03424,11.72826 25.10545,15.47898 -4.4475,8.66265 -33.32684,64.86537 -33.32684,64.86537 0.0116,-0.0232 -0.39481,0.68512 -0.71995,1.31217 -20.39091,-0.98703 -34.46481,2.34565 -42.96489,10.18384 l -0.10451,0.10451 c 0,0 -0.92897,1.23089 -1.52119,2.03213 -1.99729,-0.39482 -294.89012,-57.991 -294.89012,-57.991 0,0 -0.68512,-0.16257 -1.41668,-0.31352 0.8593,-1.92762 1.45152,-3.85523 1.45152,-5.66673 0,-0.85929 -0.0929,-1.67214 -0.29031,-2.46177 -0.45287,-1.74182 -1.47474,-3.10044 -2.75207,-4.3081 5.60866,-5.56221 41.32758,-41.1534 41.50176,-41.31597 6.57247,-0.60383 14.32937,-1.5328 20.26317,-5.08611"
         id="path4737"
         inkscape:connector-curvature="0" />
    </g>
  </g>
</svg>
