<?xml version="1.0" encoding="UTF-8" standalone="no"?>
<!-- Created with Inkscape (http://www.inkscape.org/) -->

<svg
   xmlns:dc="http://purl.org/dc/elements/1.1/"
   xmlns:cc="http://creativecommons.org/ns#"
   xmlns:rdf="http://www.w3.org/1999/02/22-rdf-syntax-ns#"
   xmlns:svg="http://www.w3.org/2000/svg"
   xmlns="http://www.w3.org/2000/svg"
   xmlns:xlink="http://www.w3.org/1999/xlink"
   xmlns:sodipodi="http://sodipodi.sourceforge.net/DTD/sodipodi-0.dtd"
   xmlns:inkscape="http://www.inkscape.org/namespaces/inkscape"
   id="svg5816"
   sodipodi:version="0.32"
   height="48px"
   width="48px"
   sodipodi:docname="notifications.svg"
   version="1.1"
   inkscape:version="0.48.3.1 r9886"
   inkscape:export-filename="/home/glic3rinu/vct/confine-controller/controller/static/controller/icons/notifications.png"
   inkscape:export-xdpi="90"
   inkscape:export-ydpi="90">
  <defs
     id="defs3">
    <linearGradient
       id="linearGradient2152">
      <stop
         id="stop2154"
         stop-color="#9aa29a"
         offset="0" />
      <stop
         id="stop2156"
         stop-color="#b5beb5"
         offset="1" />
    </linearGradient>
    <radialGradient
       id="radialGradient11382"
       gradientUnits="userSpaceOnUse"
       cx="6.7027"
       cy="73.616"
       r="7.2284"
       gradientTransform="scale(1.9022,0.5257)">
      <stop
         id="stop10693"
         offset="0" />
      <stop
         id="stop10695"
         stop-opacity="0"
         offset="1" />
    </radialGradient>
    <linearGradient
       id="linearGradient27463"
       y2="32.203"
       gradientUnits="userSpaceOnUse"
       y1="37.785"
       gradientTransform="matrix(2.3949,0,0,0.78106,2.8795,0.343)"
       x2="9.7619"
       x1="8.7804">
      <stop
         id="stop2276"
         stop-opacity=".12871"
         offset="0" />
      <stop
         id="stop2278"
         stop-opacity="0"
         offset="1" />
    </linearGradient>
    <linearGradient
       id="linearGradient27468"
       y2="24.133"
       gradientUnits="userSpaceOnUse"
       y1="13.686"
       gradientTransform="matrix(1.3709,0,0,1.4438,2.4311,-0.14079)"
       x2="21.112"
       x1="11.233">
      <stop
         id="stop9751"
         stop-color="#fff"
         offset="0" />
      <stop
         id="stop9753"
         stop-color="#ededed"
         offset="1" />
    </linearGradient>
    <linearGradient
       id="linearGradient27471"
       y2="52.091"
       xlink:href="#linearGradient2152"
       gradientUnits="userSpaceOnUse"
       y1="37.197"
       gradientTransform="matrix(2.4548,0,0,0.762,2.8795,0.343)"
       x2="9.8855"
       x1="8.9156" />
    <linearGradient
       id="linearGradient27477"
       y2="29.569"
       gradientUnits="userSpaceOnUse"
       y1="15.148"
       gradientTransform="matrix(1.8193,0,0,1.0282,2.8795,0.343)"
       x2="15.311"
       x1="10.184">
      <stop
         id="stop2168"
         stop-color="#fff"
         offset="0" />
      <stop
         id="stop2170"
         stop-color="#dcdcdc"
         offset="1" />
    </linearGradient>
    <linearGradient
       id="linearGradient27483"
       y2="17.877"
       gradientUnits="userSpaceOnUse"
       y1="7.2311"
       gradientTransform="matrix(1.5706,0,0,1.191,2.8795,0.343)"
       x2="13.467"
       x1="5.8266">
      <stop
         id="stop18915"
         stop-color="#ededed"
         offset="0" />
      <stop
         id="stop18917"
         stop-color="#c8c8c8"
         offset="1" />
    </linearGradient>
    <linearGradient
       id="linearGradient27486"
       y2="26.023"
       gradientUnits="userSpaceOnUse"
       y1="4.7462"
       gradientTransform="matrix(1.3435,0,0,1.4179,2.8795,0.3146)"
       x2="18.475"
       x1="11.573">
      <stop
         id="stop15109"
         stop-color="#fff"
         offset="0" />
      <stop
         id="stop15111"
         stop-color="#e2e2e2"
         offset="1" />
    </linearGradient>
    <linearGradient
       id="linearGradient27488"
       y2="15.257"
       gradientUnits="userSpaceOnUse"
       y1="15.257"
       gradientTransform="matrix(1.3435,0,0,1.4179,2.8795,0.3146)"
       x2="30.6"
       x1="2.0619">
      <stop
         id="stop2138"
         stop-color="#989690"
         offset="0" />
      <stop
         id="stop2140"
         stop-color="#656460"
         offset="1" />
    </linearGradient>
    <radialGradient
       r="9.6875"
       gradientTransform="matrix(1,0,0,0.35161,0,16.554)"
       cx="17.312"
       cy="25.531"
       gradientUnits="userSpaceOnUse"
       id="radialGradient3107">
      <stop
         offset="0"
         id="stop3103" />
      <stop
         offset="1"
         stop-opacity="0"
         id="stop3105" />
    </radialGradient>
    <linearGradient
       inkscape:collect="always"
       xlink:href="#linearGradient2152"
       id="linearGradient3047"
       gradientUnits="userSpaceOnUse"
       gradientTransform="matrix(2.4548,0,0,0.762,2.8795,0.343)"
       x1="8.9156"
       y1="37.197"
       x2="9.8855"
       y2="52.091" />
  </defs>
  <sodipodi:namedview
     id="base"
     bordercolor="#666666"
     pagecolor="#ffffff"
     showgrid="false"
     borderopacity="1.0"
     inkscape:zoom="9.8333336"
     inkscape:cx="-3.5397769"
     inkscape:cy="13.157447"
     inkscape:window-width="1920"
     inkscape:window-height="1024"
     inkscape:window-x="0"
     inkscape:window-y="27"
     inkscape:window-maximized="1"
     inkscape:current-layer="svg5816" />
  <metadata
     id="metadata4">
    <rdf:RDF>
      <cc:Work
         rdf:about="">
        <dc:format>image/svg+xml</dc:format>
        <dc:type
           rdf:resource="http://purl.org/dc/dcmitype/StillImage" />
        <dc:title></dc:title>
        <dc:creator>
          <cc:Agent>
            <dc:title>Jakub Steiner</dc:title>
          </cc:Agent>
        </dc:creator>
        <dc:contributor>
          <cc:Agent>
            <dc:title>Andreas Nilsson</dc:title>
          </cc:Agent>
        </dc:contributor>
        <cc:license
           rdf:resource="http://creativecommons.org/licenses/by-sa/2.0/" />
        <dc:subject>
          <rdf:Bag>
            <rdf:li>mail</rdf:li>
            <rdf:li>e-mail</rdf:li>
            <rdf:li>MUA</rdf:li>
          </rdf:Bag>
        </dc:subject>
      </cc:Work>
      <cc:License
         rdf:about="http://creativecommons.org/licenses/by-sa/2.0/">
        <cc:permits
           rdf:resource="http://web.resource.org/cc/Reproduction" />
        <cc:permits
           rdf:resource="http://web.resource.org/cc/Distribution" />
        <cc:requires
           rdf:resource="http://web.resource.org/cc/Notice" />
        <cc:requires
           rdf:resource="http://web.resource.org/cc/Attribution" />
        <cc:permits
           rdf:resource="http://web.resource.org/cc/DerivativeWorks" />
        <cc:requires
           rdf:resource="http://web.resource.org/cc/ShareAlike" />
      </cc:License>
    </rdf:RDF>
  </metadata>
  <g
     id="layer1"
     transform="translate(-0.82801372,-0.73767948)">
    <path
       id="path10699"
       sodipodi:rx="13.75"
       sodipodi:ry="3.8"
       style="opacity:0.45570003;color:#000000;fill:url(#radialGradient11382)"
       sodipodi:type="arc"
       d="m 26.5,38.700001 c 0,2.098682 -6.156085,3.8 -13.75,3.8 -7.5939153,0 -13.75,-1.701318 -13.75,-3.8 0,-2.098682 6.1560847,-3.8 13.75,-3.8 7.593915,0 13.75,1.701318 13.75,3.8 z"
       transform="matrix(1.8006,0,0,1.9748,1.0839,-38.013)"
       sodipodi:cy="38.700001"
       sodipodi:cx="12.75" />
    <path
       id="path12723"
       d="m 6.3334,16.972 v 24.51 h 36.973 L 43.2444,17.09 C 43.2414,15.712 31.3964,2.412 29.2114,2.412 l -8.552,1e-4 c -2.297,0 -14.326,13.262 -14.326,14.56 z"
       sodipodi:nodetypes="ccczzzz"
       style="fill:url(#linearGradient27486);fill-rule:evenodd;stroke:url(#linearGradient27488);stroke-width:0.85659999;stroke-linejoin:round"
       inkscape:connector-curvature="0" />
    <path
       id="path18153"
       d="M 6.9231,16.787 C 6.525,16.357 18.8101,3.093 20.6671,3.093 l 8.376,5e-4 c 1.747,0 14.037,13.128 13.427,13.886 l -10.861,13.495 -12.314,-0.318 -12.372,-13.37 z"
       sodipodi:nodetypes="czzzccz"
       style="fill:url(#linearGradient27483);fill-rule:evenodd"
       inkscape:connector-curvature="0" />
    <path
       id="path2164"
       d="m 19.078,30.018 -7.333,-8.746 24.818,-6.936 3.029,6.216 -7.416,9.44"
       sodipodi:nodetypes="ccccc"
       inkscape:connector-curvature="0"
       style="fill-opacity:0.14620002;fill-rule:evenodd" />
    <path
       id="path2162"
       d="m 18.292,29.836 -7.483,-8.81 24.648,-6.893 3.174,6.271 -7.241,9.407"
       sodipodi:nodetypes="ccccc"
       inkscape:connector-curvature="0"
       style="fill-opacity:0.14620002;fill-rule:evenodd" />
    <path
       id="path2160"
       d="m 18.775,29.957 -7.675,-8.66 24.968,-7.065 3.286,6.593 -7.48,9.107"
       sodipodi:nodetypes="ccccc"
       inkscape:connector-curvature="0"
       style="fill-opacity:0.14620002;fill-rule:evenodd" />
    <path
       id="path15105"
       d="m 18.594,30.441 -7.333,-8.746 24.712,-6.894 3.11,6.388 -7.12,8.986"
       sodipodi:nodetypes="ccccc"
       style="fill:url(#linearGradient27477);fill-rule:evenodd"
       inkscape:connector-curvature="0" />
    <path
       id="path14245"
       d="M 20.488,29.064 7.092,40.036 21.001,30.432 h 9.018 l 12.42,9.482 -11.864,-10.85 H 20.488 z"
       sodipodi:nodetypes="ccccccc"
       style="fill:url(#linearGradient3047);fill-rule:evenodd"
       inkscape:connector-curvature="0" />
    <path
       id="path14339"
       style="color:#000000;fill:url(#linearGradient27471);fill-rule:evenodd"
       d="m 6.9635,16.885 11.516,14.316 1.068,-0.854 -12.584,-13.462 z"
       sodipodi:nodetypes="cccc"
       inkscape:connector-curvature="0" />
    <path
       id="path15103"
       d="m 7.3077,17.131 0.0312,23.211 h 34.945 L 42.2209,17.258 C 42.2189,16.508 31.0049,3.459 28.8369,3.459 l -7.895,2e-4 c -2.253,0 -13.635,12.892 -13.634,13.672 z"
       sodipodi:nodetypes="ccczzzz"
       style="fill:none;stroke:url(#linearGradient27468);stroke-width:0.85659999"
       inkscape:connector-curvature="0" />
    <path
       id="path17393"
       d="m 20.957,30.453 -11.941,8.271 2.219,0.006 9.998,-6.869 8.822,-1.423 -9.098,0.015 z"
       sodipodi:nodetypes="cccccc"
       inkscape:connector-curvature="0"
       style="fill:#ffffff;fill-rule:evenodd" />
    <path
       id="path2174"
       d="m 11.428,21.67 1.324,1.411 22.791,-6.884 2.915,5.682 0.614,-0.712 -3.069,-6.378 -24.575,6.881 z"
       sodipodi:nodetypes="ccccccc"
       inkscape:connector-curvature="0"
       style="fill:#ffffff;fill-rule:evenodd" />
    <path
       id="path2272"
       d="m 13.308,23.636 6.026,6.454 1.197,-1.026 10.087,0.043 0.812,0.727 3.975,-4.744 C 34.251,23.679 13.308,23.636 13.308,23.636 z"
       sodipodi:nodetypes="ccccccc"
       style="fill:url(#linearGradient27463);fill-rule:evenodd"
       inkscape:connector-curvature="0" />
    <path
       id="path27492"
       style="color:#000000;fill:#b1b1b1;fill-rule:evenodd"
       d="M 41.813,17.848 31.861,30.479 30.793,29.624 41.813,17.848 z"
       sodipodi:nodetypes="cccc"
       inkscape:connector-curvature="0" />
  </g>
  <g
     id="layer1-2"
     transform="matrix(0.58310133,0,0,0.58310133,20.027818,19.634611)">
    <path
       transform="matrix(2.1829,0,0,2.1829,-13.504,-14.35)"
       d="m 27,25.531 a 9.6875,3.4062 0 1 1 -19.375,0 9.6875,3.4062 0 1 1 19.375,0 z"
       style="opacity:0.40909005;color:#000000;fill:url(#radialGradient3107)"
       id="path3099"
       inkscape:connector-curvature="0" />
    <path
       transform="matrix(0.94463,0,0,0.98005,1.5042,-1.5569)"
       d="m 46.139,23.428 a 22.009,21.213 0 1 1 -44.018,0 22.009,21.213 0 1 1 44.018,0 z"
       id="path1650"
       inkscape:connector-curvature="0"
       style="fill:#f57900;stroke:#914900;stroke-width:0.98215002;stroke-linecap:round;stroke-linejoin:round" />
    <path
       transform="matrix(0.91409,0,0,0.94836,2.3806,-0.90582)"
       d="m 46.139,23.428 a 22.009,21.213 0 1 1 -44.018,0 22.009,21.213 0 1 1 44.018,0 z"
       id="path3392"
       inkscape:connector-curvature="0"
       style="fill:none;stroke:#fcaf3e;stroke-width:0.98215002;stroke-linecap:round;stroke-linejoin:round" />
    <path
       d="m 21.465,10.373 c -0.128,0 -0.235,0.175 -0.235,0.384 l 1.065,14.441 c 0,0.209 0.107,0.384 0.235,0.384 0,0 0.841,0.012 1.534,0 0.228,-0.004 0.298,0.02 0.505,0 0.693,0.012 1.534,0 1.534,0 0.128,0 0.235,-0.175 0.235,-0.384 l 1.064,-14.441 c 0,-0.209 -0.106,-0.354 -0.234,-0.354 h -2.581 c -0.009,-0.002 -0.008,-0.03 -0.018,-0.03 h -3.104 z"
       id="rect1872"
       inkscape:connector-curvature="0"
       style="fill:#ffffff" />
    <path
       transform="matrix(0.50486,0,0,0.60418,32.659,9.6088)"
       d="m -11.875,34.062 a 4.5625,3.8125 0 1 1 -9.125,0 4.5625,3.8125 0 1 1 9.125,0 z"
       id="path2062"
       inkscape:connector-curvature="0"
       style="fill:#ffffff" />
    <path
       d="m 43.676,20.477 c 0,10.83 -6.052,-4.306 -18.674,0.386 C 12.279,25.593 4.435,31.307 4.435,20.477 4.4351,9.646 13.225,0.856 24.056,0.856 c 10.83,10e-5 19.62,8.7902 19.62,19.621 z"
       id="path3068"
       inkscape:connector-curvature="0"
       style="fill:#fffeff;fill-opacity:0.21389998" />
  </g>
</svg>
