<?xml version="1.0" encoding="UTF-8" standalone="no"?>
<!-- Created with Inkscape (http://www.inkscape.org/) -->

<svg
   xmlns:dc="http://purl.org/dc/elements/1.1/"
   xmlns:cc="http://creativecommons.org/ns#"
   xmlns:rdf="http://www.w3.org/1999/02/22-rdf-syntax-ns#"
   xmlns:svg="http://www.w3.org/2000/svg"
   xmlns="http://www.w3.org/2000/svg"
   xmlns:xlink="http://www.w3.org/1999/xlink"
   xmlns:sodipodi="http://sodipodi.sourceforge.net/DTD/sodipodi-0.dtd"
   xmlns:inkscape="http://www.inkscape.org/namespaces/inkscape"
   id="svg5816"
   sodipodi:version="0.32"
   height="48px"
   width="48px"
   sodipodi:docname="qa.svg"
   version="1.1"
   inkscape:version="0.48.3.1 r9886"
   inkscape:export-filename="/home/glic3rinu/confine-controller/controller/static/controller/icons/qa.png"
   inkscape:export-xdpi="90"
   inkscape:export-ydpi="90">
  <defs
     id="defs3">
    <linearGradient
       id="linearGradient2152">
      <stop
         id="stop2154"
         stop-color="#9aa29a"
         offset="0" />
      <stop
         id="stop2156"
         stop-color="#b5beb5"
         offset="1" />
    </linearGradient>
    <radialGradient
       id="radialGradient11382"
       gradientUnits="userSpaceOnUse"
       cx="6.7027"
       cy="73.616"
       r="7.2284"
       gradientTransform="scale(1.9022,0.5257)">
      <stop
         id="stop10693"
         offset="0" />
      <stop
         id="stop10695"
         stop-opacity="0"
         offset="1" />
    </radialGradient>
    <linearGradient
       id="linearGradient27463"
       y2="32.203"
       gradientUnits="userSpaceOnUse"
       y1="37.785"
       gradientTransform="matrix(2.3949,0,0,0.78106,2.8795,0.343)"
       x2="9.7619"
       x1="8.7804">
      <stop
         id="stop2276"
         stop-opacity=".12871"
         offset="0" />
      <stop
         id="stop2278"
         stop-opacity="0"
         offset="1" />
    </linearGradient>
    <linearGradient
       id="linearGradient27468"
       y2="24.133"
       gradientUnits="userSpaceOnUse"
       y1="13.686"
       gradientTransform="matrix(1.3709,0,0,1.4438,2.4311,-0.14079)"
       x2="21.112"
       x1="11.233">
      <stop
         id="stop9751"
         stop-color="#fff"
         offset="0" />
      <stop
         id="stop9753"
         stop-color="#ededed"
         offset="1" />
    </linearGradient>
    <linearGradient
       id="linearGradient27471"
       y2="52.091"
       xlink:href="#linearGradient2152"
       gradientUnits="userSpaceOnUse"
       y1="37.197"
       gradientTransform="matrix(2.4548,0,0,0.762,2.8795,0.343)"
       x2="9.8855"
       x1="8.9156" />
    <linearGradient
       id="linearGradient27477"
       y2="29.569"
       gradientUnits="userSpaceOnUse"
       y1="15.148"
       gradientTransform="matrix(1.8193,0,0,1.0282,2.8795,0.343)"
       x2="15.311"
       x1="10.184">
      <stop
         id="stop2168"
         stop-color="#fff"
         offset="0" />
      <stop
         id="stop2170"
         stop-color="#dcdcdc"
         offset="1" />
    </linearGradient>
    <linearGradient
       id="linearGradient27483"
       y2="17.877"
       gradientUnits="userSpaceOnUse"
       y1="7.2311"
       gradientTransform="matrix(1.5706,0,0,1.191,2.8795,0.343)"
       x2="13.467"
       x1="5.8266">
      <stop
         id="stop18915"
         stop-color="#ededed"
         offset="0" />
      <stop
         id="stop18917"
         stop-color="#c8c8c8"
         offset="1" />
    </linearGradient>
    <linearGradient
       id="linearGradient27486"
       y2="26.023"
       gradientUnits="userSpaceOnUse"
       y1="4.7462"
       gradientTransform="matrix(1.3435,0,0,1.4179,2.8795,0.3146)"
       x2="18.475"
       x1="11.573">
      <stop
         id="stop15109"
         stop-color="#fff"
         offset="0" />
      <stop
         id="stop15111"
         stop-color="#e2e2e2"
         offset="1" />
    </linearGradient>
    <linearGradient
       id="linearGradient27488"
       y2="15.257"
       gradientUnits="userSpaceOnUse"
       y1="15.257"
       gradientTransform="matrix(1.3435,0,0,1.4179,2.8795,0.3146)"
       x2="30.6"
       x1="2.0619">
      <stop
         id="stop2138"
         stop-color="#989690"
         offset="0" />
      <stop
         id="stop2140"
         stop-color="#656460"
         offset="1" />
    </linearGradient>
    <radialGradient
       r="9.6875"
       gradientTransform="matrix(1,0,0,0.35161,0,16.554)"
       cx="17.312"
       cy="25.531"
       gradientUnits="userSpaceOnUse"
       id="radialGradient3107">
      <stop
         offset="0"
         id="stop3103" />
      <stop
         offset="1"
         stop-opacity="0"
         id="stop3105" />
    </radialGradient>
    <linearGradient
       inkscape:collect="always"
       xlink:href="#linearGradient2152"
       id="linearGradient3047"
       gradientUnits="userSpaceOnUse"
       gradientTransform="matrix(2.4548,0,0,0.762,2.8795,0.343)"
       x1="8.9156"
       y1="37.197"
       x2="9.8855"
       y2="52.091" />
    <radialGradient
       r="17.143"
       gradientTransform="matrix(1,0,0,0.5,0,20)"
       cx="23.857"
       cy="40"
       gradientUnits="userSpaceOnUse"
       id="radialGradient3976">
      <stop
         offset="0"
         id="stop4128" />
      <stop
         offset="1"
         stop-opacity="0"
         id="stop4130" />
    </radialGradient>
    <linearGradient
       x1="43.936001"
       y1="53.835999"
       x2="20.065001"
       gradientUnits="userSpaceOnUse"
       y2="-8.5627003"
       id="linearGradient3980">
      <stop
         offset="0"
         stop-color="#ffe69b"
         id="stop2481" />
      <stop
         offset="1"
         stop-color="#fff"
         id="stop2483" />
    </linearGradient>
    <linearGradient
       x1="21.993999"
       y1="33.955002"
       gradientTransform="matrix(1.003,0,0,1.003,-0.071859,0.019684)"
       x2="20.917"
       gradientUnits="userSpaceOnUse"
       y2="15.815"
       id="linearGradient3982">
      <stop
         offset="0"
         stop-opacity=".33333"
         stop-color="#fffeff"
         id="stop3959" />
      <stop
         offset="1"
         stop-opacity=".21569"
         stop-color="#fffeff"
         id="stop3961" />
    </linearGradient>
    <radialGradient
       gradientUnits="userSpaceOnUse"
       gradientTransform="matrix(1,0,0,0.110577,0,40.26648)"
       r="21.011173"
       fy="45.272587"
       fx="24.647722"
       cy="45.272587"
       cx="24.647722"
       id="radialGradient13752-0"
       xlink:href="#linearGradient13746-3"
       inkscape:collect="always" />
    <linearGradient
       id="linearGradient13746-3"
       inkscape:collect="always">
      <stop
         id="stop13748-0"
         offset="0"
         style="stop-color:#646459;stop-opacity:1;" />
      <stop
         id="stop13750-8"
         offset="1"
         style="stop-color:#646459;stop-opacity:0;" />
    </linearGradient>
    <linearGradient
       gradientUnits="userSpaceOnUse"
       y2="37.87986"
       x2="33.857143"
       y1="10.45129"
       x1="6.1071744"
       id="linearGradient14490-6"
       xlink:href="#linearGradient14484-3"
       inkscape:collect="always" />
    <linearGradient
       id="linearGradient14484-3">
      <stop
         id="stop14486-9"
         offset="0.0000000"
         style="stop-color:#c68827;stop-opacity:1.0000000;" />
      <stop
         id="stop14488-6"
         offset="1.0000000"
         style="stop-color:#89601f;stop-opacity:1.0000000;" />
    </linearGradient>
    <linearGradient
       gradientTransform="matrix(1.065698,0,0,0.987595,-1.564439,0.07487332)"
       gradientUnits="userSpaceOnUse"
       y2="39.498238"
       x2="35.785294"
       y1="18.99214"
       x1="22.308331"
       id="linearGradient15224-6"
       xlink:href="#linearGradient15218-7"
       inkscape:collect="always" />
    <linearGradient
       id="linearGradient15218-7">
      <stop
         id="stop15220-6"
         offset="0.0000000"
         style="stop-color:#f0f0ef;stop-opacity:1.0000000;" />
      <stop
         style="stop-color:#e8e8e8;stop-opacity:1;"
         offset="0.59928656"
         id="stop2269-4" />
      <stop
         style="stop-color:#ffffff;stop-opacity:1;"
         offset="0.82758623"
         id="stop2267-7" />
      <stop
         id="stop15222-0"
         offset="1.0000000"
         style="stop-color:#d8d8d3;stop-opacity:1.0000000;" />
    </linearGradient>
    <linearGradient
       gradientUnits="userSpaceOnUse"
       y2="42.007351"
       x2="30.811172"
       y1="26.696676"
       x1="26.076092"
       id="linearGradient2265-7"
       xlink:href="#linearGradient2259-0"
       inkscape:collect="always" />
    <linearGradient
       id="linearGradient2259-0"
       inkscape:collect="always">
      <stop
         id="stop2261-2"
         offset="0"
         style="stop-color:#ffffff;stop-opacity:1;" />
      <stop
         id="stop2263-7"
         offset="1"
         style="stop-color:#ffffff;stop-opacity:0;" />
    </linearGradient>
    <linearGradient
       gradientTransform="matrix(1.052632,0,0,1,-1.789474,0)"
       gradientUnits="userSpaceOnUse"
       y2="9.3233509"
       x2="25.464211"
       y1="3.8180194"
       x1="25.404572"
       id="linearGradient15240-1"
       xlink:href="#linearGradient15234-9"
       inkscape:collect="always" />
    <linearGradient
       id="linearGradient15234-9">
      <stop
         id="stop15236-8"
         offset="0.0000000"
         style="stop-color:#97978a;stop-opacity:1.0000000;" />
      <stop
         style="stop-color:#c2c2b9;stop-opacity:1.0000000;"
         offset="0.50000000"
         id="stop15242-1" />
      <stop
         id="stop15238-0"
         offset="1.0000000"
         style="stop-color:#7d7d6f;stop-opacity:1.0000000;" />
    </linearGradient>
    <linearGradient
       y2="6.481061"
       x2="25.404572"
       y1="3.8180194"
       x1="25.404572"
       gradientTransform="matrix(0.538743,0,0,0.511806,10.8008,-0.58264)"
       gradientUnits="userSpaceOnUse"
       id="linearGradient2283-3"
       xlink:href="#linearGradient15234-9"
       inkscape:collect="always" />
    <linearGradient
       id="linearGradient3502">
      <stop
         id="stop3504"
         offset="0.0000000"
         style="stop-color:#97978a;stop-opacity:1.0000000;" />
      <stop
         style="stop-color:#c2c2b9;stop-opacity:1.0000000;"
         offset="0.50000000"
         id="stop3506" />
      <stop
         id="stop3508"
         offset="1.0000000"
         style="stop-color:#7d7d6f;stop-opacity:1.0000000;" />
    </linearGradient>
    <linearGradient
       y2="9.3233509"
       x2="25.464211"
       y1="3.8180194"
       x1="25.404572"
       gradientTransform="matrix(1.005222,0,0,0.883928,-0.627923,0.84375)"
       gradientUnits="userSpaceOnUse"
       id="linearGradient2287-6"
       xlink:href="#linearGradient15234-9"
       inkscape:collect="always" />
    <linearGradient
       id="linearGradient3511">
      <stop
         id="stop3513"
         offset="0.0000000"
         style="stop-color:#97978a;stop-opacity:1.0000000;" />
      <stop
         style="stop-color:#c2c2b9;stop-opacity:1.0000000;"
         offset="0.50000000"
         id="stop3515" />
      <stop
         id="stop3517"
         offset="1.0000000"
         style="stop-color:#7d7d6f;stop-opacity:1.0000000;" />
    </linearGradient>
    <linearGradient
       gradientUnits="userSpaceOnUse"
       y2="42.0625"
       x2="39.0625"
       y1="39.15625"
       x1="36.8125"
       id="linearGradient2222-3"
       xlink:href="#linearGradient2216-5"
       inkscape:collect="always" />
    <linearGradient
       id="linearGradient2216-5"
       inkscape:collect="always">
      <stop
         id="stop2218-6"
         offset="0"
         style="stop-color:#000000;stop-opacity:1;" />
      <stop
         id="stop2220-5"
         offset="1"
         style="stop-color:#000000;stop-opacity:0;" />
    </linearGradient>
    <linearGradient
       gradientUnits="userSpaceOnUse"
       y2="37.770721"
       x2="33.664921"
       y1="40.458221"
       x1="35.996582"
       id="linearGradient2230-4"
       xlink:href="#linearGradient2224-8"
       inkscape:collect="always" />
    <linearGradient
       id="linearGradient2224-8">
      <stop
         id="stop2226-5"
         offset="0"
         style="stop-color:#7c7c7c;stop-opacity:1;" />
      <stop
         id="stop2228-7"
         offset="1"
         style="stop-color:#b8b8b8;stop-opacity:1;" />
    </linearGradient>
    <linearGradient
       gradientUnits="userSpaceOnUse"
       y2="-0.20294096"
       x2="25.692169"
       y1="12.172059"
       x1="25.682829"
       id="linearGradient2245-1"
       xlink:href="#linearGradient2239-3"
       inkscape:collect="always" />
    <linearGradient
       id="linearGradient2239-3"
       inkscape:collect="always">
      <stop
         id="stop2241-4"
         offset="0"
         style="stop-color:#ffffff;stop-opacity:1;" />
      <stop
         id="stop2243-4"
         offset="1"
         style="stop-color:#ffffff;stop-opacity:0;" />
    </linearGradient>
    <linearGradient
       gradientUnits="userSpaceOnUse"
       y2="38.070381"
       x2="34.170048"
       y1="36.921333"
       x1="33.396004"
       id="linearGradient2257-2"
       xlink:href="#linearGradient2251-2"
       inkscape:collect="always" />
    <linearGradient
       id="linearGradient2251-2"
       inkscape:collect="always">
      <stop
         id="stop2253-3"
         offset="0"
         style="stop-color:#ffffff;stop-opacity:1;" />
      <stop
         id="stop2255-2"
         offset="1"
         style="stop-color:#ffffff;stop-opacity:0;" />
    </linearGradient>
  </defs>
  <sodipodi:namedview
     id="base"
     bordercolor="#666666"
     pagecolor="#ffffff"
     showgrid="false"
     borderopacity="1.0"
     inkscape:zoom="2.4583334"
     inkscape:cx="-47.2753"
     inkscape:cy="-1.8529316"
     inkscape:window-width="1280"
     inkscape:window-height="745"
     inkscape:window-x="0"
     inkscape:window-y="27"
     inkscape:window-maximized="1"
     inkscape:current-layer="svg5816" />
  <metadata
     id="metadata4">
    <rdf:RDF>
      <cc:Work
         rdf:about="">
        <dc:format>image/svg+xml</dc:format>
        <dc:type
           rdf:resource="http://purl.org/dc/dcmitype/StillImage" />
        <dc:title></dc:title>
        <dc:creator>
          <cc:Agent>
            <dc:title>Jakub Steiner</dc:title>
          </cc:Agent>
        </dc:creator>
        <dc:contributor>
          <cc:Agent>
            <dc:title>Andreas Nilsson</dc:title>
          </cc:Agent>
        </dc:contributor>
        <cc:license
           rdf:resource="http://creativecommons.org/licenses/by-sa/2.0/" />
        <dc:subject>
          <rdf:Bag>
            <rdf:li>mail</rdf:li>
            <rdf:li>e-mail</rdf:li>
            <rdf:li>MUA</rdf:li>
          </rdf:Bag>
        </dc:subject>
      </cc:Work>
      <cc:License
         rdf:about="http://creativecommons.org/licenses/by-sa/2.0/">
        <cc:permits
           rdf:resource="http://web.resource.org/cc/Reproduction" />
        <cc:permits
           rdf:resource="http://web.resource.org/cc/Distribution" />
        <cc:requires
           rdf:resource="http://web.resource.org/cc/Notice" />
        <cc:requires
           rdf:resource="http://web.resource.org/cc/Attribution" />
        <cc:permits
           rdf:resource="http://web.resource.org/cc/DerivativeWorks" />
        <cc:requires
           rdf:resource="http://web.resource.org/cc/ShareAlike" />
      </cc:License>
    </rdf:RDF>
  </metadata>
  <g
     inkscape:label="Layer 1"
     id="layer1-0-0"
     transform="matrix(0.95833333,0,0,0.95833333,0.45268079,0.1030074)">
    <path
       transform="matrix(0.913383,0,0,1.178892,1.920946,-8.11047)"
       d="m 45.658895,45.272587 c 0,1.283151 -9.407022,2.323351 -21.011173,2.323351 -11.60415,0 -21.011173,-1.0402 -21.011173,-2.323351 0,-1.283151 9.407023,-2.323351 21.011173,-2.323351 11.604151,0 21.011173,1.0402 21.011173,2.323351 z"
       sodipodi:ry="2.3233509"
       sodipodi:rx="21.011173"
       sodipodi:cy="45.272587"
       sodipodi:cx="24.647722"
       id="path13018-9"
       style="fill:url(#radialGradient13752-0);fill-opacity:1;fill-rule:evenodd;stroke:none"
       sodipodi:type="arc" />
    <rect
       ry="1.3879364"
       rx="1.3879371"
       y="4.5"
       x="4.4643173"
       height="41.045437"
       width="39.035683"
       id="rect12368-1"
       style="fill:url(#linearGradient14490-6);fill-opacity:1;fill-rule:evenodd;stroke:#714c16;stroke-width:0.99999976;stroke-linecap:butt;stroke-linejoin:miter;stroke-miterlimit:4;stroke-opacity:1;stroke-dasharray:none;stroke-dashoffset:0" />
    <rect
       ry="0.56650835"
       rx="0.56650835"
       y="6.5295157"
       x="8.5323219"
       height="35.976688"
       width="30.951559"
       id="rect12413-2"
       style="fill:url(#linearGradient15224-6);fill-opacity:1;fill-rule:evenodd;stroke:#888a85;stroke-width:1.00000024;stroke-linecap:butt;stroke-linejoin:miter;stroke-miterlimit:4;stroke-opacity:1;stroke-dasharray:none;stroke-dashoffset:0" />
    <rect
       ry="0.98387533"
       rx="0.98387533"
       y="0"
       x="18"
       height="4"
       width="12"
       id="rect13756-6"
       style="fill:#5c5c5c;fill-opacity:1;fill-rule:evenodd;stroke:none" />
    <rect
       ry="0"
       rx="0"
       y="7.4665856"
       x="9.5171413"
       height="34.040764"
       width="29.014147"
       id="rect15244-3"
       style="fill:none;stroke:url(#linearGradient2265-7);stroke-width:1.00000048;stroke-linecap:butt;stroke-linejoin:miter;stroke-miterlimit:4;stroke-opacity:1;stroke-dasharray:none;stroke-dashoffset:0" />
    <rect
       ry="0.47879848"
       rx="0.47879848"
       y="5.4307775"
       x="5.4393425"
       height="39.092987"
       width="37.085655"
       id="rect15974-7"
       style="fill:none;stroke:#c68827;stroke-width:0.99999976;stroke-linecap:butt;stroke-linejoin:miter;stroke-miterlimit:4;stroke-opacity:1;stroke-dasharray:none;stroke-dashoffset:0" />
    <rect
       style="opacity:0.10795456;fill:#000000;fill-opacity:1;fill-rule:evenodd;stroke:#000000;stroke-width:1.00000012;stroke-linecap:butt;stroke-linejoin:miter;stroke-miterlimit:4;stroke-opacity:1;stroke-dasharray:none;stroke-dashoffset:0"
       id="rect2208-3"
       width="18.947376"
       height="7"
       x="14.791488"
       y="4.4722719"
       rx="1.3879377"
       ry="1.3879364" />
    <rect
       style="fill:url(#linearGradient15240-1);fill-opacity:1;fill-rule:evenodd;stroke:#5c5c5c;stroke-width:1.00000012;stroke-linecap:butt;stroke-linejoin:miter;stroke-miterlimit:4;stroke-opacity:1;stroke-dasharray:none;stroke-dashoffset:0"
       id="rect2285-4"
       width="18.947376"
       height="7"
       x="14.526322"
       y="3.5"
       rx="1.3879377"
       ry="1.3879364" />
    <rect
       style="fill:url(#linearGradient2283-3);fill-opacity:1;fill-rule:evenodd;stroke:none"
       id="rect2281-6"
       width="9.6973763"
       height="3.5826404"
       x="19.151323"
       y="1.2086792"
       rx="0.32543635"
       ry="0.32543635" />
    <rect
       ry="1.0129364"
       rx="1.0129364"
       y="3.9375"
       x="14.953014"
       height="6.1875"
       width="18.093992"
       id="rect13754-4"
       style="fill:url(#linearGradient2287-6);fill-opacity:1;fill-rule:evenodd;stroke:none" />
    <path
       sodipodi:nodetypes="cccc"
       id="path2212-7"
       d="m 39.018306,36.25 0.04419,5.8125 -8.5,-0.04419 8.45581,-5.76831 z"
       style="opacity:0.48863639;color:#000000;fill:url(#linearGradient2222-3);fill-opacity:1;fill-rule:evenodd;stroke:none;stroke-width:1.00000024;marker:none;visibility:visible;display:inline;overflow:visible"
       inkscape:connector-curvature="0" />
    <path
       sodipodi:nodetypes="cccc"
       id="path2210-7"
       d="m 30.059082,42.086864 c 1.791141,0.167652 8.989727,-4.369586 9.48084,-8.388009 -1.563262,2.423097 -4.954951,1.968591 -9.063709,2.127601 0,0 0.395369,5.760408 -0.417131,6.260408 z"
       style="color:#000000;fill:url(#linearGradient2230-4);fill-opacity:1;fill-rule:evenodd;stroke:#868a84;stroke-width:1.00000024;stroke-linecap:butt;stroke-linejoin:miter;stroke-miterlimit:4;stroke-opacity:1;stroke-dasharray:none;stroke-dashoffset:0;marker:none;visibility:visible;display:inline;overflow:visible"
       inkscape:connector-curvature="0" />
    <path
       id="rect2232-9"
       d="m 19.46875,1.46875 c -0.0021,0.0021 0.0017,0.028784 0,0.03125 -0.0012,0.00278 -0.03063,-0.00302 -0.03125,0 l 0,2.875 c 0,0.00642 0.02891,0.025698 0.03125,0.03125 0.0025,0.00166 -0.0028,0.03008 0,0.03125 l -3.53125,0 c -0.01776,0 -0.04522,-0.00174 -0.0625,0 -0.03403,0.00517 -0.09355,0.019776 -0.125,0.03125 -0.138168,0.058246 -0.267672,0.1990199 -0.3125,0.34375 -0.01051,0.041035 0,0.1118489 0,0.15625 l 0,4.15625 c 0,0.01776 -0.0017,0.045215 0,0.0625 0.0052,0.034032 0.01978,0.093546 0.03125,0.125 0.0097,0.023028 0.01843,0.0726 0.03125,0.09375 0.0046,0.00682 0.02634,0.02467 0.03125,0.03125 0.02087,0.025314 0.06844,0.072876 0.09375,0.09375 0.01316,0.00983 0.0484,0.0227 0.0625,0.03125 0.01454,0.00788 0.04715,0.024778 0.0625,0.03125 0.03145,0.011474 0.09097,0.026079 0.125,0.03125 0.01728,0.00174 0.04474,0 0.0625,0 l 16.125,0 c 0.01776,0 0.04521,0.00174 0.0625,0 C 32.15903,9.61983 32.21855,9.605224 32.25,9.59375 32.26535,9.58728 32.29796,9.570378 32.3125,9.5625 32.3266,9.55395 32.36184,9.541079 32.375,9.53125 32.40031,9.510376 32.44788,9.462814 32.46875,9.4375 32.47365,9.43092 32.4954,9.41307 32.5,9.40625 32.51282,9.3851 32.52154,9.335528 32.53125,9.3125 c 0.01147,-0.031454 0.02608,-0.090968 0.03125,-0.125 0.0017,-0.017285 0,-0.04474 0,-0.0625 l 0,-4.15625 c 0,-0.044401 0.01051,-0.1152152 0,-0.15625 C 32.51767,4.6677698 32.388168,4.5269964 32.25,4.46875 32.21855,4.457276 32.15903,4.442671 32.125,4.4375 c -0.01729,-0.00174 -0.04474,0 -0.0625,0 l -3.53125,0 c 0.0028,-0.00117 -0.0025,-0.029586 0,-0.03125 C 28.53355,4.4007 28.5625,4.381423 28.5625,4.375 l 0,-2.875 c -6.16e-4,-0.00302 -0.03008,0.00278 -0.03125,0 -0.0017,-0.00247 0.0021,-0.029154 0,-0.03125 -0.0028,-0.00117 -0.02823,6.157e-4 -0.03125,0 l -9,0 c -0.003,6.157e-4 -0.02847,-0.00117 -0.03125,0 z"
       style="opacity:0.31681818;fill:none;stroke:url(#linearGradient2245-1);stroke-width:0.99999994;stroke-linecap:butt;stroke-linejoin:miter;stroke-miterlimit:4;stroke-opacity:1;stroke-dasharray:none;stroke-dashoffset:0"
       inkscape:connector-curvature="0" />
    <path
       style="opacity:0.36931823;color:#000000;fill:none;stroke:url(#linearGradient2257-2);stroke-width:0.99999982;stroke-linecap:butt;stroke-linejoin:miter;stroke-miterlimit:4;stroke-opacity:1;stroke-dasharray:none;stroke-dashoffset:0;marker:none;visibility:visible;display:inline;overflow:visible"
       d="m 31.509519,40.68705 c 1.369779,-0.683829 4.529264,-2.601034 5.828645,-4.482038 -1.792523,0.376484 -2.990921,0.589573 -5.727588,0.695482 0,0 0.08656,3.011586 -0.101057,3.786556 z"
       id="path2247-3"
       sodipodi:nodetypes="cccc"
       inkscape:connector-curvature="0" />
    <rect
       y="15"
       x="14"
       height="2"
       width="21"
       id="rect2271-2"
       style="opacity:0.17045456;color:#000000;fill:#000000;fill-opacity:1;fill-rule:evenodd;stroke:none;stroke-width:1;marker:none;visibility:visible;display:inline;overflow:visible" />
    <rect
       style="opacity:0.17045456;color:#000000;fill:#000000;fill-opacity:1;fill-rule:evenodd;stroke:none;stroke-width:1;marker:none;visibility:visible;display:inline;overflow:visible"
       id="rect2273-5"
       width="20"
       height="2"
       x="14"
       y="19" />
    <rect
       y="23"
       x="14"
       height="2"
       width="18"
       id="rect2275-2"
       style="opacity:0.17045456;color:#000000;fill:#000000;fill-opacity:1;fill-rule:evenodd;stroke:none;stroke-width:1;marker:none;visibility:visible;display:inline;overflow:visible" />
    <rect
       style="opacity:0.17045456;color:#000000;fill:#000000;fill-opacity:1;fill-rule:evenodd;stroke:none;stroke-width:1;marker:none;visibility:visible;display:inline;overflow:visible"
       id="rect2277-7"
       width="21"
       height="2"
       x="14"
       y="27" />
    <rect
       y="31"
       x="14"
       height="2"
       width="13"
       id="rect2279-9"
       style="opacity:0.17045456;color:#000000;fill:#000000;fill-opacity:1;fill-rule:evenodd;stroke:none;stroke-width:1;marker:none;visibility:visible;display:inline;overflow:visible" />
  </g>
  <g
     id="g3043"
     transform="matrix(0.5744626,0,0,0.5744626,20.475088,20.322798)">
    <g
       id="layer2">
      <path
         display="block"
         transform="matrix(1.0706,0,0,0.525,-0.89276,22.5)"
         d="M 41,40 A 17.143,8.5714 0 1 1 6.714,40 17.143,8.5714 0 1 1 41,40 z"
         style="opacity:0.6;color:#000000;fill:url(#radialGradient3976);display:block"
         id="path6548"
         inkscape:connector-curvature="0" />
    </g>
    <g
       id="layer1-3">
      <g
         id="g4006">
        <path
           transform="matrix(0.92049,0,0,0.92049,2.3685,0.97408)"
           d="M 46.857,23.929 C 46.857,36.829 36.4,47.286 23.5,47.286 10.6,47.286 0.143,36.829 0.143,23.929 0.143,11.029 10.6,0.572 23.5,0.572 c 12.9,0 23.357,10.457 23.357,23.357 z"
           id="path1314"
           inkscape:connector-curvature="0"
           style="fill:#73d216;stroke:#4e9a06;stroke-width:1.08640003" />
        <path
           transform="matrix(0.85609,0,0,0.85609,1.8183,0.19777)"
           d="m 49.902,26.635 c 0,13.25 -10.741,23.991 -23.991,23.991 -13.25,0 -23.991,-10.741 -23.991,-23.991 0,-13.25 10.741,-23.991 23.991,-23.991 13.25,0 23.991,10.741 23.991,23.991 z"
           id="path3560"
           inkscape:connector-curvature="0"
           style="opacity:0.34659005;fill-opacity:0;stroke:url(#linearGradient3980);stroke-width:1.1681" />
      </g>
    </g>
    <g
       id="layer3">
      <g
         id="text4967"
         style="fill:#eeeeec;stroke:#eeeeec">
        <path
           d="m 14.707,25.178 c 0.62921,1.5e-5 1.1052,0.5163 1.4278,1.5489 0.64534,1.9361 1.1052,2.9041 1.3794,2.9041 0.20973,1.2e-5 0.42753,-0.16133 0.65342,-0.48402 4.5336,-7.2602 8.7284,-13.133 12.584,-17.618 1.0003,-1.1616 2.5895,-1.7424 4.7676,-1.7425 0.51625,3.13e-5 0.86313,0.048433 1.0406,0.1452 0.17744,0.096834 0.26618,0.21784 0.26621,0.36301 -3.3e-5,0.2259 -0.26624,0.66959 -0.79863,1.331 -6.2277,7.4861 -12.004,15.392 -17.328,23.717 -0.37109,0.58082 -1.1294,0.87124 -2.2749,0.87123 -1.1617,5e-6 -1.8473,-0.0484 -2.0571,-0.1452 -0.54856,-0.242 -1.1939,-1.4762 -1.9361,-3.7027 -0.83897,-2.4685 -1.2585,-4.0173 -1.2584,-4.6466 -8e-6,-0.67761 0.56468,-1.331 1.6941,-1.9603 0.69375,-0.3872 1.3068,-0.5808 1.8393,-0.58082"
           id="path4984"
           inkscape:connector-curvature="0" />
      </g>
    </g>
    <g
       id="layer4">
      <path
         d="m 43.429,21.8 c 0,10.863 -10.386,-6.285 -18.731,0.388 C 16.547,28.705 4.039,34.415 4.039,23.552 4.0394,12.434 12.761,2.121 23.624,2.121 34.487,2.1208 43.429,10.937 43.429,21.8 z"
         id="path3955"
         inkscape:connector-curvature="0"
         style="fill:url(#linearGradient3982)" />
    </g>
  </g>
</svg>
