<?xml version="1.0" encoding="UTF-8" standalone="no"?>
<!-- Created with Inkscape (http://www.inkscape.org/) -->

<svg
   xmlns:dc="http://purl.org/dc/elements/1.1/"
   xmlns:cc="http://creativecommons.org/ns#"
   xmlns:rdf="http://www.w3.org/1999/02/22-rdf-syntax-ns#"
   xmlns:svg="http://www.w3.org/2000/svg"
   xmlns="http://www.w3.org/2000/svg"
   xmlns:xlink="http://www.w3.org/1999/xlink"
   xmlns:sodipodi="http://sodipodi.sourceforge.net/DTD/sodipodi-0.dtd"
   xmlns:inkscape="http://www.inkscape.org/namespaces/inkscape"
   width="48"
   height="48"
   id="svg2"
   sodipodi:version="0.32"
   inkscape:version="0.48.3.1 r9886"
   inkscape:output_extension="org.inkscape.output.svg.inkscape"
   version="1.0"
   sodipodi:docname="Ticket.svg">
  <sodipodi:namedview
     pagecolor="#ffffff"
     bordercolor="#666666"
     borderopacity="1"
     objecttolerance="10"
     gridtolerance="10"
     guidetolerance="10"
     inkscape:pageopacity="0"
     inkscape:pageshadow="2"
     inkscape:window-width="1280"
     inkscape:window-height="744"
     id="namedview34"
     showgrid="false"
     inkscape:zoom="8.1152071"
     inkscape:cx="54.218386"
     inkscape:cy="32.824283"
     inkscape:window-x="0"
     inkscape:window-y="27"
     inkscape:window-maximized="1"
     inkscape:current-layer="layer1" />
  <metadata
     id="metadata38">
    <rdf:RDF>
      <cc:Work
         rdf:about="">
        <dc:format>image/svg+xml</dc:format>
        <dc:type
           rdf:resource="http://purl.org/dc/dcmitype/StillImage" />
      </cc:Work>
    </rdf:RDF>
  </metadata>
  <defs
     id="defs36">
    <radialGradient
       inkscape:collect="always"
       xlink:href="#linearGradient3101"
       id="radialGradient4112"
       gradientUnits="userSpaceOnUse"
       gradientTransform="matrix(17.672111,0,0,4.7040542,214.64967,581.22828)"
       cx="17.3125"
       cy="25.53125"
       fx="17.3125"
       fy="25.53125"
       r="9.6875" />
    <linearGradient
       id="linearGradient3101">
      <stop
         id="stop3103"
         offset="0"
         style="stop-color:#000000;stop-opacity:1" />
      <stop
         id="stop3105"
         offset="1"
         style="stop-color:#000000;stop-opacity:0" />
    </linearGradient>
    <radialGradient
       inkscape:collect="always"
       xlink:href="#linearGradient3101"
       id="radialGradient3064"
       gradientUnits="userSpaceOnUse"
       gradientTransform="matrix(21.975085,6.3282763,-1.3407576,4.7891656,481.27157,485.51432)"
       cx="17.3125"
       cy="25.53125"
       fx="17.3125"
       fy="25.53125"
       r="9.6875" />
    <radialGradient
       inkscape:collect="always"
       xlink:href="#linearGradient3101"
       id="radialGradient3065"
       gradientUnits="userSpaceOnUse"
       gradientTransform="matrix(2.4597691,0.70835213,-0.15007696,0.53607262,601.27022,757.38945)"
       cx="17.3125"
       cy="25.53125"
       fx="17.3125"
       fy="25.53125"
       r="9.6875" />
  </defs>
  <g
     transform="translate(-616.2868,-751.65095)"
     id="layer1"
     inkscape:groupmode="layer"
     inkscape:label="Layer 1">
    <path
       sodipodi:nodetypes="ccccc"
       inkscape:connector-curvature="0"
       id="rect3015"
       d="M 4.2607413,325.64444 334.67115,373.04509 288.66464,541.73564 -52.898867,427.41642 z"
       style="fill:none;stroke:#888a85;stroke-width:7;stroke-linecap:round;stroke-linejoin:round;stroke-miterlimit:4;stroke-opacity:1" />
    <path
       d="m 663.85234,790.20156 a 24.797439,5.3927179 16.086187 0 1 -47.65803,-13.72432 24.797439,5.3927179 16.086187 0 1 47.65803,13.72432 z"
       style="opacity:0.40909089;color:#000000;fill:url(#radialGradient3065);fill-opacity:1;fill-rule:nonzero;stroke:none;stroke-width:1.10533953;marker:none;visibility:visible;display:inline;overflow:visible"
       id="path3099"
       inkscape:connector-curvature="0" />
    <path
       style="fill:#f57900;fill-rule:nonzero;stroke:none"
       d="m 654.23188,791.21497 c 0.0182,-0.16892 0.0494,-0.33784 0.0962,-0.50447 0.48352,-1.67548 2.41892,-2.47898 4.39981,-1.80331 0.039,0.0137 0.0767,0.0251 0.11569,0.0411 l 0.5992,-2.11832 c -0.33274,-0.15294 -0.49912,-0.62089 -0.37434,-1.08199 0.11958,-0.45197 0.47573,-0.74415 0.82407,-0.69393 l 0.42763,-1.66863 c -0.30935,-0.15294 -0.46272,-0.57752 -0.34834,-1.00666 0.11439,-0.42686 0.46143,-0.71676 0.80068,-0.68024 l 0.42373,-1.63439 c -0.31714,-0.12783 -0.47833,-0.53871 -0.36784,-0.95416 0.11048,-0.41773 0.45492,-0.6985 0.79547,-0.66426 l 0.42374,-1.53395 c -0.32755,-0.10957 -0.49783,-0.50219 -0.38865,-0.91079 0.10659,-0.39947 0.44324,-0.67567 0.77859,-0.65056 l 0.36524,-1.39699 c -0.30676,-0.10501 -0.46662,-0.46795 -0.36524,-0.85144 0.10008,-0.38121 0.42893,-0.64828 0.75648,-0.64143 l 0.36525,-1.32623 c -0.32105,-0.0822 -0.49393,-0.43828 -0.39255,-0.8172 0.10008,-0.38121 0.43933,-0.65056 0.77338,-0.62545 l 0.35095,-1.32852 c -0.0871,-0.007 -0.17547,-0.0183 -0.26126,-0.032 -1.63774,-0.21914 -2.73738,-1.17558 -2.67758,-2.25985 l -0.26776,-0.0456 -22.33963,-2.6616 -13.08376,-1.55678 -0.0208,-0.005 c -0.44713,0.79208 -1.42847,1.35134 -2.17456,1.24405 l -0.49262,0.79665 c 0.12088,0.0365 0.11568,0.2374 -0.0169,0.46795 -0.13128,0.23055 -0.34314,0.40404 -0.48222,0.39947 l -0.46923,0.78752 c 0.13778,0.0228 0.13518,0.24425 -0.005,0.49078 -0.14298,0.24652 -0.37175,0.42457 -0.50952,0.39718 l -0.45623,0.81948 c 0.12218,0.0388 0.11178,0.25794 -0.0273,0.4999 -0.14038,0.24653 -0.36004,0.4223 -0.49782,0.4086 l -0.51082,0.88568 c 0.12088,0.0457 0.10788,0.27392 -0.0364,0.52273 -0.14297,0.2511 -0.36654,0.42914 -0.50432,0.41316 l -0.54201,0.91764 c 0.13647,0.0388 0.12348,0.28533 -0.0286,0.55012 -0.14688,0.25794 -0.36914,0.43599 -0.50822,0.41545 l -0.55371,0.91992 c 0.13647,0.0434 0.12088,0.29674 -0.0377,0.56838 -0.14948,0.26251 -0.37304,0.44512 -0.51082,0.42458 l -0.68499,1.16644 c 0.0247,0.007 0.052,0.016 0.0767,0.0274 0.71748,0.24882 0.89166,1.19841 0.38214,2.15028 l 0.0234,0.032 0.0429,0.0183"
       id="path4693"
       inkscape:connector-curvature="0" />
    <path
       style="fill:#8d5577;fill-rule:nonzero;stroke:none"
       d="m 617.11616,777.12632 14.23798,5.39852 22.82445,8.6536"
       id="path4695"
       inkscape:connector-curvature="0" />
    <path
       style="fill:#ce5c00;fill-rule:nonzero;stroke:none"
       d="m 654.20199,791.1191 c 0.0182,-0.16892 0.0507,-0.33784 0.0975,-0.50219 0.48223,-1.67548 2.41763,-2.48127 4.39852,-1.80331 0.039,0.0114 0.078,0.0251 0.11698,0.0388 l 0.59791,-2.11832 c -0.33275,-0.15522 -0.49912,-0.62088 -0.37434,-1.08198 0.11958,-0.45197 0.47442,-0.74187 0.82277,-0.69622 l 0.42894,-1.66635 c -0.30936,-0.15294 -0.46143,-0.58208 -0.34835,-1.00665 0.11568,-0.42915 0.46012,-0.71448 0.80067,-0.68252 l 0.42373,-1.63211 c -0.31714,-0.13012 -0.47832,-0.541 -0.36784,-0.95644 0.11178,-0.41545 0.45493,-0.69394 0.79548,-0.66426 l 0.42373,-1.53396 c -0.32755,-0.10728 -0.49782,-0.4999 -0.38863,-0.9085 0.10657,-0.39718 0.44323,-0.67339 0.77987,-0.65284 l 0.36394,-1.39243 c -0.30674,-0.10729 -0.46792,-0.47252 -0.36394,-0.85601 0.10009,-0.37892 0.42763,-0.64827 0.75648,-0.63686 l 0.36525,-1.32852 c -0.31976,-0.0822 -0.49522,-0.43827 -0.39384,-0.81719 0.10139,-0.37893 0.43933,-0.64828 0.77598,-0.62774 l 0.34964,-1.32623 c -0.0884,-0.009 -0.17547,-0.0183 -0.26385,-0.0297 -1.63515,-0.22371 -2.73608,-1.17558 -2.67629,-2.26213 l -0.26646,-0.0457 -35.42339,-4.21838 -0.0221,-0.005 c -0.44713,0.78981 -1.42848,1.34906 -2.17326,1.24634 l -0.49263,0.79437 c 0.11958,0.0365 0.11309,0.23968 -0.0169,0.47023 -0.13388,0.23055 -0.34315,0.39947 -0.48223,0.39719 l -0.47053,0.78524 c 0.13778,0.0274 0.13648,0.24652 -0.006,0.49077 -0.14168,0.24881 -0.37044,0.42686 -0.50822,0.40175 l -0.45493,0.81491 c 0.12088,0.0411 0.11048,0.26251 -0.0286,0.50448 -0.13907,0.24424 -0.36004,0.42001 -0.49782,0.40631 l -0.51082,0.88796 c 0.12088,0.0457 0.10788,0.27164 -0.0364,0.52045 -0.14428,0.25109 -0.36525,0.42914 -0.50302,0.41544 l -0.54202,0.91307 c 0.13648,0.0411 0.12348,0.28534 -0.0299,0.55241 -0.14687,0.25566 -0.36784,0.43371 -0.50822,0.41545 l -0.55241,0.91991 c 0.13648,0.0411 0.11958,0.29447 -0.0377,0.57067 -0.14948,0.25794 -0.37435,0.44284 -0.51212,0.4223 l -0.685,1.16872 c 0.026,0.007 0.0507,0.0137 0.0767,0.0251 0.71749,0.24653 0.89166,1.20069 0.38344,2.148 l 0.0208,0.0365 0.0429,0.016"
       id="path4697"
       inkscape:connector-curvature="0" />
    <path
       style="fill:#84476c;fill-rule:nonzero;stroke:none"
       d="m 617.08497,777.03045 14.23928,5.39851 22.82445,8.65361"
       id="path4699"
       inkscape:connector-curvature="0" />
    <path
       style="fill:#ce5c00;fill-rule:nonzero;stroke:none"
       d="m 654.17339,791.02322 c 0.0169,-0.1712 0.0494,-0.34011 0.0975,-0.50218 0.48092,-1.67777 2.41632,-2.48127 4.39851,-1.8056 0.0377,0.0114 0.0767,0.0297 0.11569,0.0411 l 0.59661,-2.11832 c -0.33016,-0.15522 -0.49653,-0.6186 -0.37565,-1.0797 0.12088,-0.45197 0.47702,-0.74415 0.82797,-0.6985 l 0.42634,-1.66863 c -0.30935,-0.14838 -0.46143,-0.57752 -0.34835,-1.0021 0.11438,-0.43142 0.46013,-0.71675 0.80197,-0.68708 l 0.42374,-1.62983 c -0.31715,-0.12783 -0.47962,-0.53643 -0.36785,-0.95415 0.11049,-0.41545 0.45364,-0.6985 0.79549,-0.66654 l 0.42373,-1.53168 c -0.32755,-0.10728 -0.49912,-0.4999 -0.38994,-0.91078 0.10658,-0.39947 0.44453,-0.67567 0.77988,-0.65056 l 0.36524,-1.39471 c -0.30805,-0.10729 -0.46663,-0.47024 -0.36524,-0.85372 0.10138,-0.38121 0.42893,-0.65057 0.75778,-0.64144 l 0.36524,-1.32851 c -0.32235,-0.0822 -0.49782,-0.43371 -0.39514,-0.81491 0.10139,-0.37893 0.44064,-0.646 0.77468,-0.62546 l 0.35095,-1.32851 c -0.0871,-0.007 -0.17548,-0.016 -0.26126,-0.0297 -1.63775,-0.22598 -2.73737,-1.17329 -2.68018,-2.26212 l -0.26517,-0.0434 -22.33962,-2.66388 -13.08376,-1.55907 -0.0208,-0.002 c -0.44973,0.7898 -1.42977,1.34906 -2.17456,1.24634 l -0.49262,0.79437 c 0.12088,0.0365 0.11568,0.24196 -0.0169,0.46795 -0.13258,0.23055 -0.34315,0.40175 -0.48222,0.40175 l -0.47053,0.78524 c 0.13908,0.0251 0.13648,0.24424 -0.007,0.48849 -0.14168,0.25109 -0.36915,0.42914 -0.50693,0.39946 l -0.45752,0.8172 c 0.12348,0.0434 0.11308,0.26479 -0.0273,0.50675 -0.13908,0.24425 -0.35874,0.42002 -0.49652,0.40404 l -0.51212,0.89024 c 0.12218,0.0434 0.10788,0.27164 -0.0351,0.51817 -0.14428,0.25337 -0.36654,0.43142 -0.50432,0.41316 l -0.54202,0.91763 c 0.13648,0.0411 0.12349,0.28305 -0.0299,0.55013 -0.14558,0.25566 -0.36784,0.43599 -0.50692,0.41773 l -0.55372,0.91763 c 0.13518,0.0411 0.11959,0.29675 -0.0377,0.57067 -0.14948,0.26022 -0.37304,0.44055 -0.51212,0.42001 l -0.68369,1.17101 c 0.0247,0.007 0.0494,0.0137 0.0767,0.0251 0.71618,0.24653 0.89166,1.20068 0.38214,2.15027 l 0.0221,0.0342 0.0429,0.016"
       id="path4701"
       inkscape:connector-curvature="0" />
    <path
       style="fill:#7a3961;fill-rule:nonzero;stroke:none"
       d="m 617.05637,776.93457 14.23928,5.39852 22.82315,8.65589"
       id="path4703"
       inkscape:connector-curvature="0" />
    <path
       style="fill:#ce5c00;fill-rule:nonzero;stroke:none"
       d="m 654.1448,790.92507 c 0.0169,-0.16664 0.0494,-0.33555 0.0962,-0.49762 0.48223,-1.67777 2.41763,-2.48127 4.39852,-1.80788 0.0377,0.0137 0.078,0.0297 0.11568,0.0434 l 0.5992,-2.12288 c -0.33274,-0.15066 -0.49912,-0.61632 -0.37693,-1.07514 0.12218,-0.45425 0.47703,-0.74872 0.82666,-0.6985 l 0.42764,-1.66863 c -0.30935,-0.15294 -0.46273,-0.5798 -0.34965,-1.00438 0.11568,-0.43142 0.46144,-0.71447 0.80198,-0.6848 l 0.42374,-1.63211 c -0.31846,-0.12783 -0.47833,-0.53871 -0.36655,-0.95416 0.10789,-0.41544 0.45233,-0.69621 0.79158,-0.66882 l 0.42373,-1.52939 c -0.32494,-0.10957 -0.49652,-0.50447 -0.38734,-0.9085 0.10659,-0.40175 0.44453,-0.67795 0.77988,-0.65285 l 0.36525,-1.39699 c -0.30546,-0.10728 -0.46793,-0.46795 -0.36525,-0.85144 0.10138,-0.3812 0.42894,-0.64828 0.75778,-0.64143 l 0.36525,-1.32623 c -0.32236,-0.0822 -0.49523,-0.43599 -0.39514,-0.81491 0.10138,-0.37893 0.44063,-0.65057 0.77468,-0.62774 l 0.35095,-1.32851 c -0.0871,-0.007 -0.17288,-0.016 -0.26257,-0.0297 -1.63514,-0.2237 -2.73607,-1.17329 -2.67758,-2.26212 l -0.26646,-0.0457 -22.33962,-2.66159 -13.08377,-1.55678 -0.0208,-0.005 c -0.44713,0.79209 -1.42978,1.35134 -2.17586,1.24634 l -0.49003,0.79437 c 0.11958,0.0365 0.11438,0.24196 -0.0182,0.47023 -0.13128,0.22826 -0.34315,0.40175 -0.48223,0.39718 l -0.47053,0.78753 c 0.13778,0.0228 0.13648,0.24424 -0.005,0.49077 -0.14168,0.24653 -0.37044,0.42686 -0.50822,0.39947 l -0.45623,0.81491 c 0.12348,0.0434 0.11178,0.26023 -0.0286,0.50447 -0.13907,0.24425 -0.35744,0.42229 -0.49652,0.40632 l -0.51342,0.88796 c 0.12348,0.0434 0.10788,0.27392 -0.0338,0.52045 -0.14558,0.25109 -0.36655,0.43142 -0.50432,0.41088 l -0.54202,0.92219 c 0.13648,0.0365 0.12478,0.28306 -0.0299,0.55013 -0.14557,0.25337 -0.36784,0.43142 -0.50692,0.41544 l -0.55501,0.91992 c 0.13778,0.0411 0.12218,0.29675 -0.0351,0.56839 -0.15078,0.26022 -0.37435,0.44284 -0.51343,0.42229 l -0.68369,1.16873 c 0.0247,0.009 0.0507,0.0137 0.0767,0.0228 0.71749,0.2511 0.89166,1.20297 0.38214,2.15256 l 0.0221,0.0365 0.0429,0.0137"
       id="path4705"
       inkscape:connector-curvature="0" />
    <path
       style="fill:#722c56;fill-rule:nonzero;stroke:none"
       d="m 617.02647,776.8387 14.23799,5.39852 22.82445,8.65589"
       id="path4707"
       inkscape:connector-curvature="0" />
    <path
       style="fill:#ce5c00;fill-rule:nonzero;stroke:none"
       d="m 654.1149,790.83148 c 0.0169,-0.16892 0.0494,-0.33555 0.0962,-0.50219 0.48222,-1.67548 2.41762,-2.47898 4.39721,-1.80559 0.0403,0.016 0.0793,0.0274 0.11699,0.0434 l 0.5979,-2.1206 c -0.33015,-0.15294 -0.49782,-0.62089 -0.37434,-1.07971 0.11958,-0.44968 0.47703,-0.74415 0.82537,-0.69849 l 0.42893,-1.66635 c -0.31065,-0.15066 -0.46532,-0.57752 -0.34964,-1.00666 0.11438,-0.42686 0.46143,-0.71448 0.80198,-0.68024 l 0.42373,-1.63211 c -0.31715,-0.12783 -0.48223,-0.53871 -0.36784,-0.961 0.11048,-0.41317 0.45362,-0.69165 0.79158,-0.66198 l 0.42372,-1.53395 c -0.32364,-0.10729 -0.49522,-0.50219 -0.38604,-0.90851 0.10529,-0.39718 0.44324,-0.67567 0.77859,-0.64828 l 0.36524,-1.39699 c -0.30545,-0.10729 -0.46662,-0.47023 -0.36524,-0.856 0.10138,-0.37664 0.43023,-0.64828 0.75648,-0.63687 l 0.36654,-1.32851 c -0.32105,-0.0845 -0.49653,-0.43599 -0.39514,-0.81492 0.10138,-0.3812 0.44193,-0.64827 0.77468,-0.62545 l 0.35095,-1.32851 c -0.0871,-0.009 -0.17417,-0.016 -0.25996,-0.0297 -1.63645,-0.2237 -2.73868,-1.17557 -2.68018,-2.26213 l -0.26646,-0.0456 -22.33833,-2.66159 -13.08506,-1.55907 -0.0208,-0.002 c -0.44713,0.7898 -1.43108,1.34906 -2.17456,1.24634 l -0.49132,0.79437 c 0.11958,0.0365 0.11308,0.2374 -0.0169,0.46795 -0.13388,0.23054 -0.34445,0.40175 -0.48352,0.39946 l -0.46923,0.78524 c 0.13778,0.0251 0.13518,0.24425 -0.007,0.49078 -0.14168,0.24881 -0.37045,0.42686 -0.50823,0.39946 l -0.45623,0.81492 c 0.12219,0.0434 0.11309,0.2625 -0.0273,0.50447 -0.14038,0.24653 -0.35875,0.42229 -0.49782,0.4086 l -0.51082,0.88339 c 0.11958,0.0479 0.10528,0.27392 -0.0377,0.52502 -0.14298,0.25109 -0.36394,0.42914 -0.50302,0.41088 l -0.54202,0.91991 c 0.13778,0.0365 0.12478,0.28077 -0.0286,0.54784 -0.14818,0.25338 -0.37044,0.43599 -0.50822,0.41773 l -0.55372,0.91764 c 0.13648,0.0411 0.12088,0.29903 -0.0364,0.57067 -0.15208,0.26022 -0.37304,0.44283 -0.51212,0.42229 l -0.68499,1.16873 c 0.026,0.007 0.052,0.016 0.0767,0.0251 0.71749,0.24653 0.89167,1.1984 0.38214,2.15027 l 0.0221,0.0342 0.0442,0.0183"
       id="path4709"
       inkscape:connector-curvature="0" />
    <path
       style="fill:#681c4c;fill-rule:nonzero;stroke:none"
       d="m 616.99788,776.74511 14.23798,5.39852 22.82315,8.65361"
       id="path4711"
       inkscape:connector-curvature="0" />
    <path
       style="fill:#ce5c00;fill-rule:nonzero;stroke:none"
       d="m 654.08631,790.73789 c 0.0143,-0.17348 0.0468,-0.33784 0.0949,-0.50675 0.48223,-1.67092 2.41633,-2.47442 4.39852,-1.80331 0.039,0.016 0.078,0.0297 0.11698,0.0434 l 0.59661,-2.11832 c -0.33015,-0.15751 -0.49783,-0.62089 -0.37434,-1.08427 0.12218,-0.44969 0.47832,-0.74187 0.82537,-0.69393 l 0.42893,-1.66635 c -0.30935,-0.15294 -0.46273,-0.58208 -0.34965,-1.01123 0.11569,-0.42457 0.46013,-0.71447 0.80068,-0.67795 l 0.42373,-1.63439 c -0.31714,-0.12555 -0.47962,-0.53643 -0.36784,-0.95416 0.11048,-0.41545 0.45493,-0.69622 0.79418,-0.66654 l 0.42374,-1.53395 c -0.32626,-0.10501 -0.49653,-0.49991 -0.38734,-0.90623 0.10657,-0.39946 0.44322,-0.67567 0.77857,-0.65284 l 0.36524,-1.39471 c -0.30674,-0.10729 -0.46662,-0.47252 -0.36394,-0.85372 0.10139,-0.38121 0.42893,-0.65056 0.75648,-0.63687 l 0.36525,-1.33308 c -0.32105,-0.0799 -0.49652,-0.43142 -0.39385,-0.81035 0.1001,-0.3812 0.44063,-0.65056 0.77469,-0.6323 l 0.34964,-1.32394 c -0.0871,-0.007 -0.17417,-0.0183 -0.26126,-0.0297 -1.63774,-0.2237 -2.73608,-1.17329 -2.67758,-2.26213 l -0.26646,-0.0479 -22.33962,-2.6616 -13.08377,-1.55906 -0.0234,-0.002 c -0.44453,0.78981 -1.42718,1.35363 -2.17327,1.24634 l -0.49132,0.79666 c 0.12088,0.0365 0.11438,0.23968 -0.0169,0.46794 -0.13387,0.23055 -0.34444,0.40175 -0.48222,0.39491 l -0.47053,0.7898 c 0.13908,0.0274 0.13648,0.24196 -0.005,0.48849 -0.14298,0.2511 -0.37044,0.42914 -0.50822,0.40175 l -0.45623,0.8172 c 0.12088,0.0388 0.11308,0.26022 -0.0286,0.50219 -0.14038,0.24424 -0.35874,0.42457 -0.49652,0.40859 l -0.51342,0.8834 c 0.12218,0.0479 0.10918,0.27392 -0.0338,0.52501 -0.14558,0.24881 -0.36655,0.43143 -0.50433,0.41088 l -0.54331,0.91764 c 0.13778,0.0411 0.12478,0.28533 -0.0286,0.55012 -0.14687,0.25566 -0.36914,0.43599 -0.50692,0.42001 l -0.55371,0.91535 c 0.13518,0.0411 0.11828,0.29675 -0.039,0.57067 -0.15077,0.26023 -0.37304,0.44056 -0.51082,0.42458 l -0.68369,1.16644 c 0.0247,0.009 0.0507,0.016 0.0754,0.0251 0.71749,0.24882 0.89166,1.20069 0.38214,2.15256 l 0.0234,0.0342 0.0429,0.016"
       id="path4713"
       inkscape:connector-curvature="0" />
    <path
       style="fill:#5f0141;fill-rule:nonzero;stroke:none"
       d="m 616.96798,776.64924 14.23669,5.39624 22.82315,8.6536"
       id="path4715"
       inkscape:connector-curvature="0" />
    <path
       style="fill:#ce5c00;fill-rule:nonzero;stroke:none"
       d="m 654.05381,790.63974 c 0.0169,-0.16892 0.052,-0.33784 0.0975,-0.50219 0.48222,-1.6732 2.41632,-2.47898 4.39851,-1.80331 0.039,0.0137 0.078,0.0274 0.11698,0.0411 l 0.59791,-2.11832 c -0.33145,-0.1575 -0.49782,-0.62088 -0.37694,-1.08426 0.12218,-0.44741 0.47962,-0.73959 0.82667,-0.69394 l 0.42894,-1.67091 c -0.30936,-0.14609 -0.46403,-0.57295 -0.34836,-1.00438 0.11439,-0.42914 0.45754,-0.71447 0.80198,-0.68023 l 0.42114,-1.63439 c -0.31715,-0.12784 -0.47962,-0.53415 -0.36655,-0.95416 0.11049,-0.41317 0.45364,-0.69622 0.79418,-0.66654 l 0.42244,-1.53168 c -0.32365,-0.10956 -0.49522,-0.4999 -0.38734,-0.91078 0.10658,-0.39719 0.44452,-0.67339 0.77857,-0.65056 l 0.36524,-1.39471 c -0.30544,-0.10501 -0.46532,-0.47023 -0.36393,-0.85144 0.10008,-0.38349 0.43023,-0.65056 0.75777,-0.64143 l 0.36265,-1.32852 c -0.31975,-0.0822 -0.49262,-0.43599 -0.39254,-0.81719 0.10139,-0.37436 0.44194,-0.646 0.77468,-0.62545 l 0.34964,-1.32624 c -0.0871,-0.007 -0.17417,-0.0205 -0.26125,-0.0297 -1.63775,-0.2237 -2.73607,-1.18014 -2.67889,-2.26213 l -0.26516,-0.0457 -22.33962,-2.6616 -13.08376,-1.55906 -0.0221,-0.002 c -0.44713,0.7898 -1.42978,1.35134 -2.17326,1.24633 l -0.49132,0.79209 c 0.11958,0.0388 0.11308,0.24196 -0.0195,0.46795 -0.13128,0.23055 -0.34185,0.40403 -0.48223,0.39946 l -0.46922,0.78753 c 0.13908,0.0251 0.13648,0.24653 -0.005,0.49077 -0.14167,0.24881 -0.37044,0.42686 -0.50822,0.39947 l -0.45623,0.81719 c 0.12219,0.0434 0.11179,0.26251 -0.0286,0.50447 -0.13908,0.24197 -0.35745,0.42002 -0.49782,0.40632 l -0.51083,0.88339 c 0.12219,0.0457 0.10789,0.27621 -0.0364,0.5273 -0.14298,0.24653 -0.36524,0.42686 -0.50432,0.4086 l -0.54202,0.91992 c 0.13778,0.0365 0.12608,0.28305 -0.0273,0.55012 -0.14818,0.25338 -0.37044,0.43371 -0.50822,0.41545 l -0.55502,0.91991 c 0.13648,0.0411 0.12089,0.29447 -0.0364,0.5661 -0.14948,0.2648 -0.37304,0.44513 -0.51212,0.42458 l -0.68499,1.17101 c 0.026,0.007 0.0533,0.0114 0.078,0.0228 0.71619,0.24881 0.89166,1.20069 0.38084,2.15256 l 0.0234,0.032 0.0429,0.016"
       id="path4717"
       inkscape:connector-curvature="0" />
    <path
       style="fill:#560037;fill-rule:nonzero;stroke:none"
       d="m 616.93809,776.55109 14.23798,5.40308 22.82445,8.65133"
       id="path4719"
       inkscape:connector-curvature="0" />
    <path
       style="fill:#fcaf3e;fill-rule:nonzero;stroke:none"
       d="m 616.90949,776.45521 -0.0442,-0.016 -0.0221,-0.0297 c 0.50822,-0.95644 0.33405,-1.90603 -0.38084,-2.15256 -0.026,-0.0114 -0.052,-0.0205 -0.0793,-0.0251 l 0.685,-1.17329 c 0.13908,0.0228 0.36134,-0.15979 0.51212,-0.42002 0.15857,-0.27164 0.17417,-0.52501 0.0377,-0.57066 l 0.55502,-0.91764 c 0.13777,0.0205 0.35874,-0.16207 0.50822,-0.41544 0.15077,-0.26708 0.16507,-0.5136 0.0273,-0.55013 l 0.54202,-0.91992 c 0.13778,0.0206 0.36004,-0.15978 0.50432,-0.40859 0.14298,-0.24881 0.15598,-0.47936 0.0351,-0.52502 l 0.51082,-0.88339 c 0.14038,0.0114 0.35745,-0.16664 0.49913,-0.4086 0.13908,-0.24196 0.14947,-0.46338 0.0273,-0.50447 l 0.45623,-0.8172 c 0.13778,0.0297 0.36525,-0.15065 0.50822,-0.39718 0.14168,-0.24881 0.14298,-0.47023 0.005,-0.49078 l 0.46922,-0.78752 c 0.14168,0.002 0.35095,-0.16891 0.48353,-0.39718 0.13128,-0.23284 0.13648,-0.43599 0.0169,-0.47023 l 0.49262,-0.79665 c 0.74478,0.105 1.72613,-0.45426 2.17326,-1.24406 l 0.0208,0.002 13.08506,1.56135 22.34094,2.65703 0.26515,0.0502 c -0.0585,1.08199 1.04113,2.03614 2.67758,2.25984 0.0871,0.0137 0.17548,0.0206 0.26127,0.0251 l -0.34835,1.3308 c -0.33665,-0.0205 -0.6746,0.24881 -0.77598,0.62545 -0.10139,0.37892 0.0728,0.73731 0.39514,0.81948 l -0.36525,1.32623 c -0.33014,-0.009 -0.6577,0.25795 -0.75907,0.64143 -0.10269,0.38121 0.0598,0.74416 0.36524,0.85372 l -0.36524,1.39243 c -0.33407,-0.0205 -0.67072,0.2511 -0.776,0.65056 -0.11047,0.4086 0.0611,0.80122 0.38604,0.91079 l -0.42372,1.53396 c -0.33925,-0.0297 -0.68369,0.24881 -0.79418,0.66197 -0.11178,0.4223 0.0507,0.83089 0.36654,0.95872 l -0.42244,1.63211 c -0.34053,-0.0342 -0.6876,0.24881 -0.80067,0.68024 -0.11309,0.42914 0.039,0.856 0.34964,1.00666 l -0.43023,1.67091 c -0.34705,-0.0502 -0.70449,0.24197 -0.82407,0.69393 -0.12348,0.46339 0.0429,0.92449 0.37434,1.07971 l -0.59921,2.12288 c -0.0364,-0.016 -0.0767,-0.0297 -0.11568,-0.0434 -1.98089,-0.67795 -3.91369,0.13011 -4.39851,1.80331 -0.0468,0.16435 -0.0793,0.33327 -0.0975,0.50219 l -37.11443,-14.08865"
       id="path4721"
       inkscape:connector-curvature="0" />
    <path
       style="fill:#2e3436;fill-rule:nonzero;stroke:none"
       d="m 625.71692,762.63364 c -0.633,0.70534 -1.55456,0.856 -2.29414,0.97698 l -0.24176,0.0365 c 0,0 0.0286,0.25795 0.0364,0.31501 -0.13648,0.2374 -4.62468,8.08751 -4.62468,8.08751 0,-0.002 -0.0442,0.0753 -0.0442,0.0753 l -0.17158,0.29218 0.20407,0.21229 c 0.16378,0.16891 0.26776,0.40859 0.31195,0.71676 0.0637,0.4337 -0.004,0.96785 -0.19107,1.50428 l -0.13128,0.3812 0.63041,0.24425 c 0.003,0 33.23582,11.47727 33.23582,11.47727 0,0 0.26256,-0.61404 0.28596,-0.66426 0.89166,-1.43808 2.41112,-2.03614 4.64678,-1.81929 l 0.11308,0.009 0.19367,-0.60948 c 0.003,-0.009 3.8097,-13.02264 3.8097,-13.02264 0.007,-0.0274 0.0312,-0.12098 0.0312,-0.12098 l 0.0832,-0.35609 -0.21317,-0.0822 c -1.85091,-0.70078 -2.80756,-1.67092 -2.76597,-2.79856 l 0.0143,-0.3287 -0.47183,-0.032 -32.02571,-4.53339 -0.37564,-0.0137 -0.0455,0.0525 z m 0.13518,0.58893 c 0.0598,0.002 0.25736,0.0114 0.26646,0.0114 0.0104,0.002 32.02312,4.53338 32.02312,4.53338 0.004,0 0.0663,0.002 0.13387,0.009 0.0884,1.30797 1.01125,2.3055 2.81017,3.0428 -0.49783,1.70287 -3.73042,12.751 -3.73042,12.751 0.001,-0.005 -0.0442,0.13468 -0.0806,0.25794 -2.28244,-0.19402 -3.8578,0.4611 -4.80925,2.00191 l -0.0117,0.0205 c 0,0 -0.10398,0.24197 -0.17027,0.39947 -0.22357,-0.0776 -33.00837,-11.39966 -33.00837,-11.39966 0,0 -0.0767,-0.032 -0.15857,-0.0616 0.0962,-0.37893 0.16247,-0.75785 0.16247,-1.11395 0,-0.16891 -0.0104,-0.3287 -0.0325,-0.48392 -0.0507,-0.34241 -0.16508,-0.60948 -0.30805,-0.84688 0.6278,-1.09339 4.62598,-8.08978 4.64547,-8.12174 0.73569,-0.1187 1.60395,-0.30131 2.26815,-0.99981"
       id="path4737"
       inkscape:connector-curvature="0" />
    <g
       id="text3020"
       style="font-size:40px;font-style:normal;font-variant:normal;font-weight:bold;font-stretch:normal;line-height:125%;letter-spacing:6.83000278px;word-spacing:0px;fill:#2e3436;fill-opacity:1;stroke:none;font-family:Ubuntu;-inkscape-font-specification:Ubuntu Bold"
       transform="matrix(0,-0.09164423,0.09149184,0,713.92815,757.3604)">
      <path
         inkscape:connector-curvature="0"
         id="path3025"
         d="m -88.966406,-935.90497 c 0,0 -17.329784,-9.25275 -17.329784,-9.25275 0,0 2.15421,-11.47885 2.15421,-11.47885 0,0 -77.18334,-42.01067 -77.18334,-42.01067 0,0 2.72557,-8.24406 2.72557,-8.24406 0,0 76.01666,41.94815 76.01666,41.94815 0,0 2.02589,-10.79504 2.02589,-10.79504 0,0 16.446025,9.23681 16.446025,9.23681 0,0 -4.855231,30.59641 -4.855231,30.59641"
         style="fill:#2e3436" />
      <path
         inkscape:connector-curvature="0"
         id="path3027"
         d="m -192.92028,-963.57595 c 0,0 2.91868,-8.82813 2.91868,-8.82813 0,0 76.2893,39.71117 76.2893,39.71117 0,0 -1.72593,8.83512 -1.72593,8.83512 0,0 -77.48205,-39.71816 -77.48205,-39.71816 m 98.052782,51.17395 c -3.677032,-1.88213 -6.514312,-3.92345 -8.495542,-6.11596 -1.89867,-2.10702 -2.71878,-3.87574 -2.46074,-5.30109 0.25682,-1.41941 1.51479,-2.11972 3.76371,-2.10549 2.316283,0.0993 5.284321,1.0952 8.899174,2.9797 3.593122,1.87317 6.306128,3.83305 8.154516,5.88746 1.928643,2.13777 2.791403,3.91283 2.588175,5.33017 -0.204269,1.42315 -1.429541,2.11413 -3.686212,2.06827 -2.189379,0.039 -5.108495,-0.87245 -8.763081,-2.74306"
         style="fill:#2e3436" />
      <path
         inkscape:connector-curvature="0"
         id="path3029"
         d="m -208.75193,-923.96104 c 2.5396,-7.58783 9.59376,-10.74892 20.96975,-9.63457 11.05984,1.12718 25.36068,6.08953 42.75811,14.72891 8.47297,4.20758 15.79373,8.47415 22.01456,12.81896 6.27199,4.36112 11.38282,8.60629 15.36232,12.75486 4.06784,4.18882 6.9906,8.23872 8.778603,12.16697 1.795467,3.94497 2.433995,7.61177 1.906086,11.01158 -0.308077,1.98291 -0.9224,3.63773 -1.84518,4.96206 -0.832538,1.37654 -1.780819,2.48602 -2.845259,3.32581 -0.97309,0.8888 -1.96521,1.54998 -2.97571,1.98165 -1.01448,0.43309 -1.79827,0.72433 -2.34936,0.87268 0,0 -18.16251,-11.85347 -18.16251,-11.85347 1.98971,-0.69438 3.76558,-1.75438 5.32908,-3.17562 1.54332,-1.36524 2.53812,-3.2714 2.99047,-5.71336 0.29975,-1.61885 0.011,-3.48725 -0.86351,-5.60673 -0.88089,-2.07 -2.51787,-4.33249 -4.91408,-6.79274 -2.30956,-2.37126 -5.44971,-4.9065 -9.43275,-7.61359 -4.0017,-2.71977 -8.99907,-5.54128 -15.0212,-8.47602 -4.85961,-2.36824 -9.50476,-4.38669 -13.93401,-6.05166 -4.37303,-1.58416 -8.27769,-2.63783 -11.70762,-3.1544 -3.46979,-0.47653 -6.41656,-0.33676 -8.83365,0.42674 -2.32855,0.82136 -3.85951,2.45146 -4.58296,4.89862 -0.45824,1.54979 -0.65211,3.04968 -0.57959,4.4977 0.0726,1.45215 0.24113,2.7954 0.50588,4.02835 0.37532,1.28684 0.84032,2.485 1.39481,3.5935 0.55501,1.10948 1.07567,2.12393 1.56187,3.04308 0,0 -21.96304,-6.70254 -21.96304,-6.70254 -1.78345,-2.62657 -3.12794,-5.78015 -4.0312,-9.44777 -0.89831,-3.64768 -0.73711,-7.2821 0.47009,-10.889"
         style="fill:#2e3436" />
      <path
         inkscape:connector-curvature="0"
         id="path3031"
         d="m -229.027,-854.36397 c 4.6406,0.62543 9.61632,1.15599 14.91416,1.59237 5.34245,0.53667 10.61175,0.88028 15.80655,1.03404 5.2357,0.25533 10.19772,0.32837 14.89198,0.22236 4.7549,-0.0555 8.94439,-0.3314 12.58261,-0.82451 0,0 -51.46639,-22.37719 -51.46639,-22.37719 0,0 3.9675,-12.00049 3.9675,-12.00049 0,0 113.53935,50.53649 113.53935,50.53649 0,0 -1.86373,11.74473 -1.86373,11.74473 0,0 -41.28633,-17.95097 -41.28633,-17.95097 6.26007,6.15336 12.77158,12.40547 19.52923,18.75188 6.83012,6.42164 13.099,12.33842 18.81242,17.75573 0,0 -2.39921,15.11919 -2.39921,15.11919 -8.34276,-7.58854 -16.3951,-15.10672 -24.14812,-22.54741 -7.79246,-7.41403 -15.62316,-15.09333 -23.48678,-23.03383 -8.84402,1.11956 -19.37445,1.47003 -31.68929,1.02175 -12.68812,-0.40549 -26.94377,-1.53231 -42.8705,-3.41687 0,0 5.16655,-15.62727 5.16655,-15.62727"
         style="fill:#2e3436" />
      <path
         inkscape:connector-curvature="0"
         id="path3033"
         d="m -241.84551,-815.59182 c 0,0 126.08627,48.52843 126.08627,48.52843 0,0 -6.9012,43.48958 -6.9012,43.48958 0,0 -23.31314,-8.10226 -23.31314,-8.10226 0,0 5.56826,-29.74176 5.56826,-29.74176 0,0 -24.16039,-9.00727 -24.16039,-9.00727 0,0 -5.80044,26.53291 -5.80044,26.53291 0,0 -24.49162,-8.58318 -24.49162,-8.58318 0,0 6.68636,-26.7502 6.68636,-26.7502 0,0 -32.14186,-11.98285 -32.14186,-11.98285 0,0 -9.67024,32.92142 -9.67024,32.92142 0,0 -27.6484,-9.55571 -27.6484,-9.55571 0,0 15.7864,-47.74911 15.7864,-47.74911"
         style="fill:#2e3436" />
      <path
         inkscape:connector-curvature="0"
         id="path3035"
         d="m -136.72248,-634.95841 c 0,0 -26.43535,-7.20964 -26.43535,-7.20964 0,0 4.59894,-24.50565 4.59894,-24.50565 0,0 -120.81776,-35.39771 -120.81776,-35.39771 0,0 6.0771,-18.38139 6.0771,-18.38139 0,0 118.02189,36.29492 118.02189,36.29492 0,0 4.20681,-22.41617 4.20681,-22.41617 0,0 24.44701,7.97663 24.44701,7.97663 0,0 -10.09864,63.63901 -10.09864,63.63901"
         style="fill:#2e3436" />
    </g>
  </g>
</svg>
