<?xml version="1.0" encoding="UTF-8" standalone="no"?>
<!-- Created with Inkscape (http://www.inkscape.org/) -->

<svg
   xmlns:dc="http://purl.org/dc/elements/1.1/"
   xmlns:cc="http://creativecommons.org/ns#"
   xmlns:rdf="http://www.w3.org/1999/02/22-rdf-syntax-ns#"
   xmlns:svg="http://www.w3.org/2000/svg"
   xmlns="http://www.w3.org/2000/svg"
   xmlns:xlink="http://www.w3.org/1999/xlink"
   xmlns:sodipodi="http://sodipodi.sourceforge.net/DTD/sodipodi-0.dtd"
   xmlns:inkscape="http://www.inkscape.org/namespaces/inkscape"
   width="64px"
   height="64px"
   id="svg3140"
   version="1.1"
   inkscape:version="0.48.3.1 r9886"
   sodipodi:docname="ChartSlice.svg"
   inkscape:export-filename="/home/glic3rinu/controller/controller/static/icons/ChartSlice.png"
   inkscape:export-xdpi="67.5"
   inkscape:export-ydpi="67.5">
  <defs
     id="defs3142">
    <radialGradient
       inkscape:collect="always"
       xlink:href="#linearGradient2456"
       id="radialGradient2462"
       gradientTransform="scale(1.164226,0.85894)"
       cx="28.283663"
       cy="47.400623"
       fx="28.283663"
       fy="47.400623"
       r="13.804391"
       gradientUnits="userSpaceOnUse" />
    <linearGradient
       inkscape:collect="always"
       id="linearGradient2456">
      <stop
         style="stop-color:#000000;stop-opacity:1;"
         offset="0"
         id="stop2458" />
      <stop
         style="stop-color:#000000;stop-opacity:0;"
         offset="1"
         id="stop2460" />
    </linearGradient>
    <linearGradient
       inkscape:collect="always"
       xlink:href="#linearGradient6699"
       id="linearGradient6738"
       gradientUnits="userSpaceOnUse"
       x1="-22.976406"
       y1="18.516047"
       x2="-14.360273"
       y2="33.016045" />
    <linearGradient
       id="linearGradient6699">
      <stop
         style="stop-color:#ff7171;stop-opacity:1.0000000;"
         offset="0.0000000"
         id="stop6701" />
      <stop
         style="stop-color:#cc0000;stop-opacity:1.0000000;"
         offset="1.0000000"
         id="stop6703" />
    </linearGradient>
    <linearGradient
       inkscape:collect="always"
       xlink:href="#linearGradient6711"
       id="linearGradient6740"
       gradientUnits="userSpaceOnUse"
       x1="-16.387411"
       y1="24.453547"
       x2="-9.7352734"
       y2="28.195539" />
    <linearGradient
       id="linearGradient6711">
      <stop
         style="stop-color:#5b8ccb;stop-opacity:1.0000000;"
         offset="0.0000000"
         id="stop6713" />
      <stop
         style="stop-color:#3465a4;stop-opacity:1.0000000;"
         offset="1.0000000"
         id="stop6715" />
    </linearGradient>
    <linearGradient
       inkscape:collect="always"
       xlink:href="#linearGradient6719"
       id="linearGradient6742"
       gradientUnits="userSpaceOnUse"
       x1="-17.863041"
       y1="30.827509"
       x2="-20.821646"
       y2="25.015009" />
    <linearGradient
       id="linearGradient6719">
      <stop
         style="stop-color:#73d216;stop-opacity:1;"
         offset="0"
         id="stop6721" />
      <stop
         style="stop-color:#d5f7b3;stop-opacity:1.0000000;"
         offset="1.0000000"
         id="stop6723" />
    </linearGradient>
    <linearGradient
       inkscape:collect="always"
       xlink:href="#linearGradient6687"
       id="linearGradient6744"
       gradientUnits="userSpaceOnUse"
       x1="-20.75"
       y1="29"
       x2="-19.5"
       y2="18.75" />
    <linearGradient
       inkscape:collect="always"
       id="linearGradient6687">
      <stop
         style="stop-color:#ffffff;stop-opacity:1;"
         offset="0"
         id="stop6689" />
      <stop
         style="stop-color:#ffffff;stop-opacity:0;"
         offset="1"
         id="stop6691" />
    </linearGradient>
    <linearGradient
       inkscape:collect="always"
       xlink:href="#linearGradient6687"
       id="linearGradient6746"
       gradientUnits="userSpaceOnUse"
       x1="-20.75"
       y1="29"
       x2="-19.5"
       y2="18.75" />
    <radialGradient
       r="13.804391"
       fy="47.400623"
       fx="28.283663"
       cy="47.400623"
       cx="28.283663"
       gradientTransform="scale(1.164226,0.85894)"
       gradientUnits="userSpaceOnUse"
       id="radialGradient3138"
       xlink:href="#linearGradient2456"
       inkscape:collect="always" />
    <linearGradient
       inkscape:collect="always"
       xlink:href="#linearGradient6719"
       id="linearGradient3228"
       gradientUnits="userSpaceOnUse"
       x1="-17.863041"
       y1="30.827509"
       x2="-20.821646"
       y2="25.015009"
       gradientTransform="matrix(2.3068312,0,0,2.3068312,75.436288,-29.971509)" />
    <linearGradient
       inkscape:collect="always"
       xlink:href="#linearGradient6711"
       id="linearGradient3232"
       gradientUnits="userSpaceOnUse"
       x1="-16.387411"
       y1="24.453547"
       x2="-9.7352734"
       y2="28.195539"
       gradientTransform="matrix(2.3068312,0,0,2.3068312,75.436288,-29.971509)" />
    <linearGradient
       inkscape:collect="always"
       xlink:href="#linearGradient6699"
       id="linearGradient3236"
       gradientUnits="userSpaceOnUse"
       x1="-22.976406"
       y1="18.516047"
       x2="-14.360273"
       y2="33.016045"
       gradientTransform="matrix(2.3068312,0,0,2.3068312,75.436288,-29.971509)" />
  </defs>
  <sodipodi:namedview
     id="base"
     pagecolor="#ffffff"
     bordercolor="#666666"
     borderopacity="1.0"
     inkscape:pageopacity="0.0"
     inkscape:pageshadow="2"
     inkscape:zoom="3.8890873"
     inkscape:cx="40.838076"
     inkscape:cy="45.824875"
     inkscape:current-layer="layer1"
     showgrid="true"
     inkscape:document-units="px"
     inkscape:grid-bbox="true"
     inkscape:window-width="1920"
     inkscape:window-height="1024"
     inkscape:window-x="0"
     inkscape:window-y="27"
     inkscape:window-maximized="1" />
  <metadata
     id="metadata3145">
    <rdf:RDF>
      <cc:Work
         rdf:about="">
        <dc:format>image/svg+xml</dc:format>
        <dc:type
           rdf:resource="http://purl.org/dc/dcmitype/StillImage" />
        <dc:title></dc:title>
      </cc:Work>
    </rdf:RDF>
  </metadata>
  <g
     id="layer1"
     inkscape:label="Layer 1"
     inkscape:groupmode="layer">
    <path
       sodipodi:type="arc"
       style="fill:url(#radialGradient3138);fill-opacity:1;fill-rule:evenodd;stroke:none;display:inline"
       id="path1693"
       sodipodi:cx="32.92857"
       sodipodi:cy="40.714287"
       sodipodi:rx="16.071428"
       sodipodi:ry="11.857142"
       d="m 48.999998,40.714287 a 16.071428,11.857142 0 1 1 -32.142857,0 16.071428,11.857142 0 1 1 32.142857,0 z"
       transform="matrix(1.9877203,0,0,1.9642114,-33.53732,-46.19613)" />
    <path
       inkscape:r_cy="true"
       inkscape:r_cx="true"
       style="fill:#670000;fill-opacity:1;fill-rule:nonzero;stroke:none"
       d="M 12.369349,12.53725 C 6.6404653,16.324487 3.4875046,21.468391 3.4875046,27.027415 l 0,4.614471 c 0,5.554514 3.1529607,10.699922 8.8818444,14.487157 5.411012,3.576667 12.561735,5.546994 20.134861,5.546994 7.57026,0 14.720984,-1.970327 20.134858,-5.546994 5.726021,-3.787235 8.878983,-8.931138 8.878983,-14.487157 l 0,-4.614471 c 0,-5.559024 -3.154394,-10.704433 -8.878983,-14.490165 C 47.226625,8.9635908 40.075901,6.9917613 32.50421,6.9917613 c -7.573126,0 -14.723849,1.9718295 -20.134861,5.5454887 z"
       id="path3931"
       inkscape:connector-curvature="0" />
    <path
       inkscape:r_cy="true"
       inkscape:r_cx="true"
       style="fill:#a40000;fill-rule:nonzero;stroke:none"
       d="M 59.232123,26.438696 C 56.051961,18.626511 45.26874,12.87434 32.44441,12.87434 c -12.824332,0 -23.6075521,5.752171 -26.787715,13.564356 l -0.9568621,0 0,4.775065 c 0,10.127367 12.4229231,18.336306 27.7445771,18.336306 15.323133,0 27.743094,-8.208939 27.743094,-18.336306 l 0,-4.775065 -0.955381,0 0,0 z"
       id="path3933"
       inkscape:connector-curvature="0" />
    <path
       inkscape:r_cy="true"
       inkscape:r_cx="true"
       style="fill:url(#linearGradient3236);fill-opacity:1;fill-rule:nonzero;stroke:none"
       d="m 60.187504,26.438696 c 0,10.128922 -12.419961,18.337864 -27.743094,18.337864 -15.323135,0 -27.7445771,-8.208942 -27.7445771,-18.337864 0,-10.128924 12.4229231,-18.3378638 27.7445771,-18.3378638 15.323133,0 27.743094,8.2089398 27.743094,18.3378638 l 0,0 z"
       id="path3935"
       inkscape:connector-curvature="0" />
    <path
       inkscape:r_cy="true"
       inkscape:r_cx="true"
       style="fill:#204a87;fill-rule:nonzero;stroke:none"
       d="M 60.187504,31.927919 60.151956,26.93036 C 57.143615,37.312895 50.37892,41.711432 41.873802,43.864801 l 0,4.600802 c 9.20573,-2.315182 17.444232,-7.58658 18.313703,-16.537684 l 0,0 z"
       id="path3937"
       inkscape:connector-curvature="0" />
    <path
       inkscape:r_cy="true"
       inkscape:r_cx="true"
       style="fill:url(#linearGradient3232);fill-opacity:1;fill-rule:nonzero;stroke:none"
       d="M 60.187504,26.438696 C 59.552065,38.156195 45.059889,43.499164 41.82196,43.702986 l -9.379033,-17.26429 27.743096,0 0.0015,0 z"
       id="path3939"
       inkscape:connector-curvature="0" />
    <path
       inkscape:r_cy="true"
       inkscape:r_cx="true"
       style="fill:#4e9a06;fill-rule:nonzero;stroke:none"
       d="m 26.636577,49.148644 0,-4.773507 c 5.221273,0.679929 10.011512,0.799734 15.185383,-0.493221 l 0.05184,4.585244 C 37.53829,49.889255 30.755821,49.956157 26.63657,49.150201 l 0,-0.0016 z"
       id="path3941"
       inkscape:connector-curvature="0" />
    <path
       inkscape:r_cy="true"
       inkscape:r_cx="true"
       style="fill:url(#linearGradient3228);fill-opacity:1;fill-rule:nonzero;stroke:none"
       d="m 32.442927,26.440251 9.379033,17.262735 c -5.742658,2.189155 -15.185383,0.672151 -15.185383,0.672151 l 5.80635,-17.934886 z"
       id="path3943"
       inkscape:connector-curvature="0" />
    <path
       inkscape:r_cy="true"
       inkscape:r_cx="true"
       sodipodi:type="arc"
       style="opacity:0.31111115;color:#000000;fill:none;stroke:url(#linearGradient6744);stroke-width:1.02083337;stroke-linecap:butt;stroke-linejoin:miter;stroke-miterlimit:4;stroke-opacity:1;stroke-dasharray:none;stroke-dashoffset:0;marker:none;visibility:visible;display:block;overflow:visible"
       id="path5959"
       sodipodi:cx="-18.625"
       sodipodi:cy="24.375"
       sodipodi:rx="11.75"
       sodipodi:ry="7.75"
       d="m -6.875,24.375 a 11.75,7.75 0 1 1 -23.5,0 11.75,7.75 0 1 1 23.5,0 z"
       transform="matrix(2.2597534,0,0,2.2597534,74.173762,-28.823978)" />
    <path
       inkscape:r_cy="true"
       inkscape:r_cx="true"
       transform="matrix(2.2597534,0,0,2.2597534,74.559457,-24.210316)"
       d="m -6.875,24.375 a 11.75,7.75 0 1 1 -23.5,0 11.75,7.75 0 1 1 23.5,0 z"
       sodipodi:ry="7.75"
       sodipodi:rx="11.75"
       sodipodi:cy="24.375"
       sodipodi:cx="-18.625"
       id="path6707"
       style="opacity:0.13333327;color:#000000;fill:none;stroke:url(#linearGradient6746);stroke-width:1.02083337;stroke-linecap:butt;stroke-linejoin:miter;stroke-miterlimit:4;stroke-opacity:1;stroke-dasharray:none;stroke-dashoffset:0;marker:none;visibility:visible;display:block;overflow:visible"
       sodipodi:type="arc" />
  </g>
</svg>
